<?xml version="1.0" encoding="utf-8" standalone="no"?>
<!DOCTYPE svg PUBLIC "-//W3C//DTD SVG 1.1//EN"
  "http://www.w3.org/Graphics/SVG/1.1/DTD/svg11.dtd">
<svg xmlns:xlink="http://www.w3.org/1999/xlink" width="576pt" height="252pt" viewBox="0 0 576 252" xmlns="http://www.w3.org/2000/svg" version="1.1">
 <metadata>
  <rdf:RDF xmlns:dc="http://purl.org/dc/elements/1.1/" xmlns:cc="http://creativecommons.org/ns#" xmlns:rdf="http://www.w3.org/1999/02/22-rdf-syntax-ns#">
   <cc:Work>
    <dc:type rdf:resource="http://purl.org/dc/dcmitype/StillImage"/>
    <dc:date>2023-11-30T17:58:46.692814</dc:date>
    <dc:format>image/svg+xml</dc:format>
    <dc:creator>
     <cc:Agent>
      <dc:title>Matplotlib v3.8.0, https://matplotlib.org/</dc:title>
     </cc:Agent>
    </dc:creator>
   </cc:Work>
  </rdf:RDF>
 </metadata>
 <defs>
  <style type="text/css">*{stroke-linejoin: round; stroke-linecap: butt}</style>
 </defs>
 <g id="figure_1">
  <g id="patch_1">
   <path d="M 0 252 
L 576 252 
L 576 0 
L 0 0 
z
" style="fill: #ffffff"/>
  </g>
  <g id="axes_1">
   <g id="patch_2">
    <path d="M 72 224.28 
L 274.909091 224.28 
L 274.909091 30.24 
L 72 30.24 
z
" style="fill: #ffffff"/>
   </g>
   <g id="matplotlib.axis_1">
    <g id="text_1">
     <!-- Density -->
     <g transform="translate(144.673295 239.464375) scale(0.15 -0.15)">
      <defs>
       <path id="DejaVuSerif-44" d="M 1581 331 
L 2163 331 
Q 3072 331 3558 850 
Q 4044 1369 4044 2338 
Q 4044 3306 3559 3818 
Q 3075 4331 2163 4331 
L 1581 4331 
L 1581 331 
z
M 353 0 
L 353 331 
L 947 331 
L 947 4331 
L 353 4331 
L 353 4666 
L 2209 4666 
Q 3416 4666 4089 4050 
Q 4763 3434 4763 2338 
Q 4763 1238 4088 619 
Q 3413 0 2209 0 
L 353 0 
z
" transform="scale(0.015625)"/>
       <path id="DejaVuSerif-65" d="M 3469 1600 
L 991 1600 
L 991 1575 
Q 991 903 1244 561 
Q 1497 219 1991 219 
Q 2369 219 2611 417 
Q 2853 616 2950 1006 
L 3413 1006 
Q 3275 459 2904 184 
Q 2534 -91 1931 -91 
Q 1203 -91 761 389 
Q 319 869 319 1663 
Q 319 2450 753 2931 
Q 1188 3413 1894 3413 
Q 2647 3413 3050 2948 
Q 3453 2484 3469 1600 
z
M 2791 1931 
Q 2772 2513 2545 2808 
Q 2319 3103 1894 3103 
Q 1497 3103 1269 2806 
Q 1041 2509 991 1931 
L 2791 1931 
z
" transform="scale(0.015625)"/>
       <path id="DejaVuSerif-6e" d="M 263 0 
L 263 331 
L 781 331 
L 781 2988 
L 231 2988 
L 231 3322 
L 1356 3322 
L 1356 2731 
Q 1516 3069 1770 3241 
Q 2025 3413 2363 3413 
Q 2913 3413 3172 3097 
Q 3431 2781 3431 2113 
L 3431 331 
L 3944 331 
L 3944 0 
L 2356 0 
L 2356 331 
L 2853 331 
L 2853 1931 
Q 2853 2541 2703 2767 
Q 2553 2994 2175 2994 
Q 1775 2994 1565 2701 
Q 1356 2409 1356 1850 
L 1356 331 
L 1856 331 
L 1856 0 
L 263 0 
z
" transform="scale(0.015625)"/>
       <path id="DejaVuSerif-73" d="M 359 184 
L 359 959 
L 691 959 
Q 703 588 923 403 
Q 1144 219 1575 219 
Q 1963 219 2166 364 
Q 2369 509 2369 788 
Q 2369 1006 2220 1140 
Q 2072 1275 1594 1428 
L 1178 1569 
Q 750 1706 558 1912 
Q 366 2119 366 2438 
Q 366 2894 700 3153 
Q 1034 3413 1625 3413 
Q 1888 3413 2178 3344 
Q 2469 3275 2778 3144 
L 2778 2419 
L 2447 2419 
Q 2434 2741 2221 2922 
Q 2009 3103 1644 3103 
Q 1281 3103 1095 2975 
Q 909 2847 909 2591 
Q 909 2381 1050 2254 
Q 1191 2128 1613 1997 
L 2069 1856 
Q 2541 1709 2748 1489 
Q 2956 1269 2956 922 
Q 2956 450 2595 179 
Q 2234 -91 1600 -91 
Q 1278 -91 972 -22 
Q 666 47 359 184 
z
" transform="scale(0.015625)"/>
       <path id="DejaVuSerif-69" d="M 622 4353 
Q 622 4497 726 4603 
Q 831 4709 978 4709 
Q 1122 4709 1226 4603 
Q 1331 4497 1331 4353 
Q 1331 4206 1228 4103 
Q 1125 4000 978 4000 
Q 831 4000 726 4103 
Q 622 4206 622 4353 
z
M 1356 331 
L 1900 331 
L 1900 0 
L 231 0 
L 231 331 
L 781 331 
L 781 2988 
L 231 2988 
L 231 3322 
L 1356 3322 
L 1356 331 
z
" transform="scale(0.015625)"/>
       <path id="DejaVuSerif-74" d="M 691 2988 
L 184 2988 
L 184 3322 
L 691 3322 
L 691 4353 
L 1269 4353 
L 1269 3322 
L 2350 3322 
L 2350 2988 
L 1269 2988 
L 1269 878 
Q 1269 456 1350 337 
Q 1431 219 1650 219 
Q 1875 219 1978 351 
Q 2081 484 2088 781 
L 2522 781 
Q 2497 328 2275 118 
Q 2053 -91 1600 -91 
Q 1103 -91 897 129 
Q 691 350 691 878 
L 691 2988 
z
" transform="scale(0.015625)"/>
       <path id="DejaVuSerif-79" d="M 1381 -609 
L 1600 -56 
L 359 2988 
L -19 2988 
L -19 3322 
L 1509 3322 
L 1509 2988 
L 978 2988 
L 1913 703 
L 2847 2988 
L 2350 2988 
L 2350 3322 
L 3597 3322 
L 3597 2988 
L 3225 2988 
L 1703 -750 
Q 1547 -1138 1356 -1280 
Q 1166 -1422 819 -1422 
Q 672 -1422 517 -1397 
Q 363 -1372 206 -1325 
L 206 -691 
L 500 -691 
Q 519 -903 608 -995 
Q 697 -1088 884 -1088 
Q 1056 -1088 1161 -992 
Q 1266 -897 1381 -609 
z
" transform="scale(0.015625)"/>
      </defs>
      <use xlink:href="#DejaVuSerif-44"/>
      <use xlink:href="#DejaVuSerif-65" x="80.175781"/>
      <use xlink:href="#DejaVuSerif-6e" x="139.355469"/>
      <use xlink:href="#DejaVuSerif-73" x="203.759766"/>
      <use xlink:href="#DejaVuSerif-69" x="255.078125"/>
      <use xlink:href="#DejaVuSerif-74" x="287.060547"/>
      <use xlink:href="#DejaVuSerif-79" x="327.246094"/>
     </g>
    </g>
   </g>
   <g id="matplotlib.axis_2">
    <g id="text_2">
     <!-- Temperature -->
     <g transform="translate(64.880469 176.397891) rotate(-90) scale(0.15 -0.15)">
      <defs>
       <path id="DejaVuSerif-54" d="M 1222 0 
L 1222 331 
L 1819 331 
L 1819 4294 
L 447 4294 
L 447 3566 
L 63 3566 
L 63 4666 
L 4206 4666 
L 4206 3566 
L 3822 3566 
L 3822 4294 
L 2450 4294 
L 2450 331 
L 3047 331 
L 3047 0 
L 1222 0 
z
" transform="scale(0.015625)"/>
       <path id="DejaVuSerif-6d" d="M 3316 2675 
Q 3481 3041 3739 3227 
Q 3997 3413 4341 3413 
Q 4863 3413 5119 3089 
Q 5375 2766 5375 2113 
L 5375 331 
L 5894 331 
L 5894 0 
L 4300 0 
L 4300 331 
L 4800 331 
L 4800 2047 
Q 4800 2556 4650 2772 
Q 4500 2988 4153 2988 
Q 3769 2988 3567 2697 
Q 3366 2406 3366 1850 
L 3366 331 
L 3866 331 
L 3866 0 
L 2291 0 
L 2291 331 
L 2791 331 
L 2791 2069 
Q 2791 2566 2641 2777 
Q 2491 2988 2144 2988 
Q 1759 2988 1557 2697 
Q 1356 2406 1356 1850 
L 1356 331 
L 1856 331 
L 1856 0 
L 263 0 
L 263 331 
L 781 331 
L 781 2994 
L 231 2994 
L 231 3322 
L 1356 3322 
L 1356 2731 
Q 1516 3063 1762 3238 
Q 2009 3413 2322 3413 
Q 2709 3413 2968 3220 
Q 3228 3028 3316 2675 
z
" transform="scale(0.015625)"/>
       <path id="DejaVuSerif-70" d="M 1313 1825 
L 1313 1497 
Q 1313 897 1542 583 
Q 1772 269 2209 269 
Q 2650 269 2876 622 
Q 3103 975 3103 1663 
Q 3103 2353 2876 2703 
Q 2650 3053 2209 3053 
Q 1772 3053 1542 2737 
Q 1313 2422 1313 1825 
z
M 738 2988 
L 184 2988 
L 184 3322 
L 1313 3322 
L 1313 2803 
Q 1481 3116 1742 3264 
Q 2003 3413 2388 3413 
Q 3000 3413 3387 2928 
Q 3775 2444 3775 1663 
Q 3775 881 3387 395 
Q 3000 -91 2388 -91 
Q 2003 -91 1742 57 
Q 1481 206 1313 519 
L 1313 -997 
L 1856 -997 
L 1856 -1331 
L 184 -1331 
L 184 -997 
L 738 -997 
L 738 2988 
z
" transform="scale(0.015625)"/>
       <path id="DejaVuSerif-72" d="M 3059 3328 
L 3059 2497 
L 2728 2497 
Q 2713 2744 2591 2866 
Q 2469 2988 2234 2988 
Q 1809 2988 1582 2694 
Q 1356 2400 1356 1850 
L 1356 331 
L 2022 331 
L 2022 0 
L 263 0 
L 263 331 
L 781 331 
L 781 2994 
L 231 2994 
L 231 3322 
L 1356 3322 
L 1356 2731 
Q 1525 3078 1790 3245 
Q 2056 3413 2438 3413 
Q 2578 3413 2733 3391 
Q 2888 3369 3059 3328 
z
" transform="scale(0.015625)"/>
       <path id="DejaVuSerif-61" d="M 2547 1044 
L 2547 1747 
L 1806 1747 
Q 1378 1747 1168 1562 
Q 959 1378 959 997 
Q 959 650 1171 447 
Q 1384 244 1747 244 
Q 2106 244 2326 466 
Q 2547 688 2547 1044 
z
M 3122 2075 
L 3122 331 
L 3634 331 
L 3634 0 
L 2547 0 
L 2547 359 
Q 2356 128 2106 18 
Q 1856 -91 1522 -91 
Q 969 -91 644 203 
Q 319 497 319 997 
Q 319 1513 691 1797 
Q 1063 2081 1741 2081 
L 2547 2081 
L 2547 2309 
Q 2547 2688 2317 2895 
Q 2088 3103 1672 3103 
Q 1328 3103 1125 2947 
Q 922 2791 872 2484 
L 575 2484 
L 575 3156 
Q 875 3284 1158 3348 
Q 1441 3413 1709 3413 
Q 2400 3413 2761 3070 
Q 3122 2728 3122 2075 
z
" transform="scale(0.015625)"/>
       <path id="DejaVuSerif-75" d="M 2266 3322 
L 3341 3322 
L 3341 331 
L 3884 331 
L 3884 0 
L 2766 0 
L 2766 588 
Q 2606 256 2353 82 
Q 2100 -91 1766 -91 
Q 1213 -91 952 223 
Q 691 538 691 1209 
L 691 2988 
L 172 2988 
L 172 3322 
L 1269 3322 
L 1269 1388 
Q 1269 781 1417 556 
Q 1566 331 1947 331 
Q 2347 331 2556 625 
Q 2766 919 2766 1478 
L 2766 2988 
L 2266 2988 
L 2266 3322 
z
" transform="scale(0.015625)"/>
      </defs>
      <use xlink:href="#DejaVuSerif-54"/>
      <use xlink:href="#DejaVuSerif-65" x="58.949219"/>
      <use xlink:href="#DejaVuSerif-6d" x="118.128906"/>
      <use xlink:href="#DejaVuSerif-70" x="212.953125"/>
      <use xlink:href="#DejaVuSerif-65" x="276.966797"/>
      <use xlink:href="#DejaVuSerif-72" x="336.146484"/>
      <use xlink:href="#DejaVuSerif-61" x="383.949219"/>
      <use xlink:href="#DejaVuSerif-74" x="443.568359"/>
      <use xlink:href="#DejaVuSerif-75" x="483.753906"/>
      <use xlink:href="#DejaVuSerif-72" x="548.158203"/>
      <use xlink:href="#DejaVuSerif-65" x="595.960938"/>
     </g>
    </g>
   </g>
   <g id="line2d_1">
    <path d="M 93.944714 209.653435 
L 100.081754 208.366607 
L 105.451664 207.020851 
L 110.821574 205.434311 
L 115.424355 203.853456 
L 120.027135 202.039874 
L 124.629915 199.96343 
L 128.465565 198.008582 
L 132.301215 195.827853 
L 136.136866 193.39949 
L 139.972516 190.700641 
L 143.808166 187.707576 
L 147.643816 184.396001 
L 151.479466 180.741507 
L 155.315116 176.720173 
L 159.150767 172.309375 
L 162.986417 167.488835 
L 166.822067 162.241989 
L 170.657717 156.557731 
L 174.493367 150.432626 
L 178.329018 143.873703 
L 182.164668 136.901948 
L 186.767448 128.047838 
L 192.137358 117.195704 
L 203.644309 93.633991 
L 206.712829 87.83594 
L 209.781349 82.553055 
L 212.082739 79.063926 
L 213.616999 77.024835 
L 215.151259 75.259218 
L 216.685519 73.80895 
L 218.219779 72.720055 
L 219.75404 72.043058 
L 220.52117 71.876136 
L 221.2883 71.833371 
L 222.05543 71.922522 
L 222.82256 72.151704 
L 223.58969 72.529406 
L 224.35682 73.064505 
L 225.12395 73.766285 
L 225.89108 74.644447 
L 226.65821 75.709131 
L 228.19247 78.440928 
L 229.72673 82.052246 
L 231.26099 86.641867 
L 232.79525 92.317456 
L 234.32951 99.196281 
L 235.86377 107.405993 
L 237.39803 117.085464 
L 238.93229 128.385686 
L 240.46655 141.470744 
L 242.000811 156.518859 
L 243.535071 173.723513 
L 245.069331 193.294654 
L 246.603591 215.46 
L 246.603591 215.46 
" clip-path="url(#pd999a4e371)" style="fill: none; stroke: #5dc90a; stroke-width: 1.5; stroke-linecap: square"/>
   </g>
   <g id="line2d_2">
    <path d="M 81.22314 202.8543 
L 86.492045 198.801508 
L 91.76095 194.47913 
L 97.029855 189.87658 
L 102.29876 184.984172 
L 107.567664 179.793438 
L 112.836569 174.297514 
L 118.105474 168.491588 
L 123.374379 162.37343 
L 129.170174 155.284104 
L 134.965969 147.825082 
L 140.761765 140.01034 
L 147.08445 131.106448 
L 153.934027 121.06518 
L 161.837384 109.07347 
L 186.074346 71.842081 
L 186.074346 71.842081 
" clip-path="url(#pd999a4e371)" style="fill: none; stroke: #08298a; stroke-width: 1.5; stroke-linecap: square"/>
   </g>
   <g id="line2d_3">
    <path d="M 186.074346 71.842081 
L 191.114774 64.646833 
L 195.265714 59.075749 
L 198.823664 54.634274 
L 202.085117 50.896359 
L 205.050075 47.827036 
L 207.718536 45.374867 
L 210.090502 43.47511 
L 212.462469 41.87021 
L 214.537939 40.733258 
L 216.613409 39.870142 
L 218.392384 39.367012 
L 220.171358 39.099762 
L 221.950333 39.085814 
L 223.432812 39.280903 
L 224.91529 39.675777 
L 226.397769 40.282078 
L 227.880248 41.111961 
L 229.362727 42.178115 
L 230.845206 43.493784 
L 232.327684 45.072789 
L 234.106659 47.335543 
L 235.885633 50.024403 
L 237.664608 53.166822 
L 239.443583 56.791672 
L 241.222557 60.929303 
L 243.001532 65.611614 
L 244.780506 70.872124 
L 245.077002 71.807537 
L 245.077002 71.807537 
" clip-path="url(#pd999a4e371)" style="fill: none; stroke-dasharray: 5.55,2.4; stroke-dashoffset: 0; stroke: #08298a; stroke-width: 1.5"/>
   </g>
   <g id="line2d_4">
    <path d="M 245.077002 71.807537 
L 247.044691 78.459435 
L 249.012379 85.919822 
L 250.980068 94.24211 
L 253.051319 103.995558 
L 255.12257 114.835969 
L 257.193821 126.836824 
L 259.368635 140.771736 
L 261.543448 156.167001 
L 263.718262 173.123581 
L 265.68595 189.899747 
L 265.68595 189.899747 
" clip-path="url(#pd999a4e371)" style="fill: none; stroke: #08298a; stroke-width: 1.5; stroke-linecap: square"/>
   </g>
   <g id="patch_3">
    <path d="M 72 224.28 
L 72 30.24 
" style="fill: none; stroke: #000000; stroke-width: 0.8; stroke-linejoin: miter; stroke-linecap: square"/>
   </g>
   <g id="patch_4">
    <path d="M 274.909091 224.28 
L 274.909091 30.24 
" style="fill: none; stroke: #000000; stroke-width: 0.8; stroke-linejoin: miter; stroke-linecap: square"/>
   </g>
   <g id="patch_5">
    <path d="M 72 224.28 
L 274.909091 224.28 
" style="fill: none; stroke: #000000; stroke-width: 0.8; stroke-linejoin: miter; stroke-linecap: square"/>
   </g>
   <g id="patch_6">
    <path d="M 72 30.24 
L 274.909091 30.24 
" style="fill: none; stroke: #000000; stroke-width: 0.8; stroke-linejoin: miter; stroke-linecap: square"/>
   </g>
   <g id="legend_1">
    <g id="patch_7">
     <path d="M 48.563636 18.133113 
L 542.768324 18.133113 
Q 544.768324 18.133113 544.768324 16.133113 
L 544.768324 2.3128 
Q 544.768324 0.3128 542.768324 0.3128 
L 48.563636 0.3128 
Q 46.563636 0.3128 46.563636 2.3128 
L 46.563636 16.133113 
Q 46.563636 18.133113 48.563636 18.133113 
z
" style="fill: #ffffff; opacity: 0.8; stroke: #cccccc; stroke-linejoin: miter"/>
    </g>
    <g id="line2d_5">
     <path d="M 50.563636 8.411238 
L 60.563636 8.411238 
L 70.563636 8.411238 
" style="fill: none; stroke: #5dc90a; stroke-width: 1.5; stroke-linecap: square"/>
    </g>
    <g id="text_3">
     <!-- Pseudo-Experimental -->
     <g transform="translate(78.563636 11.911238) scale(0.1 -0.1)">
      <defs>
       <path id="DejaVuSerif-50" d="M 1581 2375 
L 2406 2375 
Q 2872 2375 3115 2626 
Q 3359 2878 3359 3353 
Q 3359 3831 3115 4081 
Q 2872 4331 2406 4331 
L 1581 4331 
L 1581 2375 
z
M 353 0 
L 353 331 
L 947 331 
L 947 4331 
L 353 4331 
L 353 4666 
L 2559 4666 
Q 3259 4666 3668 4311 
Q 4078 3956 4078 3353 
Q 4078 2753 3668 2397 
Q 3259 2041 2559 2041 
L 1581 2041 
L 1581 331 
L 2303 331 
L 2303 0 
L 353 0 
z
" transform="scale(0.015625)"/>
       <path id="DejaVuSerif-64" d="M 3359 331 
L 3909 331 
L 3909 0 
L 2784 0 
L 2784 519 
Q 2616 206 2355 57 
Q 2094 -91 1709 -91 
Q 1097 -91 708 395 
Q 319 881 319 1663 
Q 319 2444 706 2928 
Q 1094 3413 1709 3413 
Q 2094 3413 2355 3264 
Q 2616 3116 2784 2803 
L 2784 4531 
L 2241 4531 
L 2241 4863 
L 3359 4863 
L 3359 331 
z
M 2784 1497 
L 2784 1825 
Q 2784 2422 2554 2737 
Q 2325 3053 1888 3053 
Q 1444 3053 1217 2703 
Q 991 2353 991 1663 
Q 991 975 1217 622 
Q 1444 269 1888 269 
Q 2325 269 2554 583 
Q 2784 897 2784 1497 
z
" transform="scale(0.015625)"/>
       <path id="DejaVuSerif-6f" d="M 1925 219 
Q 2388 219 2623 584 
Q 2859 950 2859 1663 
Q 2859 2375 2623 2739 
Q 2388 3103 1925 3103 
Q 1463 3103 1227 2739 
Q 991 2375 991 1663 
Q 991 950 1228 584 
Q 1466 219 1925 219 
z
M 1925 -91 
Q 1200 -91 759 389 
Q 319 869 319 1663 
Q 319 2456 758 2934 
Q 1197 3413 1925 3413 
Q 2653 3413 3092 2934 
Q 3531 2456 3531 1663 
Q 3531 869 3092 389 
Q 2653 -91 1925 -91 
z
" transform="scale(0.015625)"/>
       <path id="DejaVuSerif-2d" d="M 281 1959 
L 1881 1959 
L 1881 1472 
L 281 1472 
L 281 1959 
z
" transform="scale(0.015625)"/>
       <path id="DejaVuSerif-45" d="M 353 0 
L 353 331 
L 947 331 
L 947 4331 
L 353 4331 
L 353 4666 
L 4109 4666 
L 4109 3628 
L 3725 3628 
L 3725 4281 
L 1581 4281 
L 1581 2719 
L 3109 2719 
L 3109 3303 
L 3494 3303 
L 3494 1753 
L 3109 1753 
L 3109 2338 
L 1581 2338 
L 1581 384 
L 3775 384 
L 3775 1038 
L 4159 1038 
L 4159 0 
L 353 0 
z
" transform="scale(0.015625)"/>
       <path id="DejaVuSerif-78" d="M 1863 2028 
L 2559 2988 
L 2113 2988 
L 2113 3322 
L 3391 3322 
L 3391 2988 
L 2950 2988 
L 2059 1759 
L 3097 331 
L 3531 331 
L 3531 0 
L 1997 0 
L 1997 331 
L 2419 331 
L 1697 1325 
L 972 331 
L 1403 331 
L 1403 0 
L 141 0 
L 141 331 
L 581 331 
L 1497 1594 
L 488 2988 
L 78 2988 
L 78 3322 
L 1563 3322 
L 1563 2988 
L 1166 2988 
L 1863 2028 
z
" transform="scale(0.015625)"/>
       <path id="DejaVuSerif-6c" d="M 1313 331 
L 1856 331 
L 1856 0 
L 184 0 
L 184 331 
L 738 331 
L 738 4531 
L 184 4531 
L 184 4863 
L 1313 4863 
L 1313 331 
z
" transform="scale(0.015625)"/>
      </defs>
      <use xlink:href="#DejaVuSerif-50"/>
      <use xlink:href="#DejaVuSerif-73" x="64.660156"/>
      <use xlink:href="#DejaVuSerif-65" x="115.978516"/>
      <use xlink:href="#DejaVuSerif-75" x="175.158203"/>
      <use xlink:href="#DejaVuSerif-64" x="239.5625"/>
      <use xlink:href="#DejaVuSerif-6f" x="303.576172"/>
      <use xlink:href="#DejaVuSerif-2d" x="363.78125"/>
      <use xlink:href="#DejaVuSerif-45" x="397.570312"/>
      <use xlink:href="#DejaVuSerif-78" x="470.568359"/>
      <use xlink:href="#DejaVuSerif-70" x="526.964844"/>
      <use xlink:href="#DejaVuSerif-65" x="590.978516"/>
      <use xlink:href="#DejaVuSerif-72" x="650.158203"/>
      <use xlink:href="#DejaVuSerif-69" x="697.960938"/>
      <use xlink:href="#DejaVuSerif-6d" x="729.943359"/>
      <use xlink:href="#DejaVuSerif-65" x="824.767578"/>
      <use xlink:href="#DejaVuSerif-6e" x="883.947266"/>
      <use xlink:href="#DejaVuSerif-74" x="948.351562"/>
      <use xlink:href="#DejaVuSerif-61" x="988.537109"/>
      <use xlink:href="#DejaVuSerif-6c" x="1048.15625"/>
     </g>
    </g>
    <g id="line2d_6">
     <path d="M 206.580824 8.411238 
L 216.580824 8.411238 
L 226.580824 8.411238 
" style="fill: none; stroke: #08298a; stroke-width: 1.5; stroke-linecap: square"/>
    </g>
    <g id="text_4">
     <!-- ML-Predicted (Considered) -->
     <g transform="translate(234.580824 11.911238) scale(0.1 -0.1)">
      <defs>
       <path id="DejaVuSerif-4d" d="M 353 0 
L 353 331 
L 947 331 
L 947 4331 
L 319 4331 
L 319 4666 
L 1678 4666 
L 3316 1344 
L 4953 4666 
L 6228 4666 
L 6228 4331 
L 5606 4331 
L 5606 331 
L 6203 331 
L 6203 0 
L 4378 0 
L 4378 331 
L 4972 331 
L 4972 3938 
L 3372 684 
L 2931 684 
L 1331 3938 
L 1331 331 
L 1925 331 
L 1925 0 
L 353 0 
z
" transform="scale(0.015625)"/>
       <path id="DejaVuSerif-4c" d="M 353 0 
L 353 331 
L 947 331 
L 947 4331 
L 353 4331 
L 353 4666 
L 2175 4666 
L 2175 4331 
L 1581 4331 
L 1581 384 
L 3713 384 
L 3713 1166 
L 4097 1166 
L 4097 0 
L 353 0 
z
" transform="scale(0.015625)"/>
       <path id="DejaVuSerif-63" d="M 3291 997 
Q 3169 466 2822 187 
Q 2475 -91 1925 -91 
Q 1200 -91 759 389 
Q 319 869 319 1663 
Q 319 2459 759 2936 
Q 1200 3413 1925 3413 
Q 2241 3413 2553 3339 
Q 2866 3266 3181 3116 
L 3181 2266 
L 2847 2266 
Q 2781 2703 2561 2903 
Q 2341 3103 1931 3103 
Q 1466 3103 1228 2742 
Q 991 2381 991 1663 
Q 991 944 1227 581 
Q 1463 219 1931 219 
Q 2303 219 2525 412 
Q 2747 606 2828 997 
L 3291 997 
z
" transform="scale(0.015625)"/>
       <path id="DejaVuSerif-20" transform="scale(0.015625)"/>
       <path id="DejaVuSerif-28" d="M 2041 -997 
Q 1281 -656 893 83 
Q 506 822 506 1931 
Q 506 3044 893 3783 
Q 1281 4522 2041 4863 
L 2041 4556 
Q 1559 4225 1350 3623 
Q 1141 3022 1141 1931 
Q 1141 844 1350 242 
Q 1559 -359 2041 -691 
L 2041 -997 
z
" transform="scale(0.015625)"/>
       <path id="DejaVuSerif-43" d="M 4513 1234 
Q 4306 581 3820 245 
Q 3334 -91 2591 -91 
Q 2134 -91 1743 65 
Q 1353 222 1050 525 
Q 700 875 529 1320 
Q 359 1766 359 2328 
Q 359 3416 987 4083 
Q 1616 4750 2644 4750 
Q 3025 4750 3456 4650 
Q 3888 4550 4384 4347 
L 4384 3272 
L 4031 3272 
Q 3916 3859 3567 4137 
Q 3219 4416 2591 4416 
Q 1844 4416 1459 3886 
Q 1075 3356 1075 2328 
Q 1075 1303 1459 773 
Q 1844 244 2591 244 
Q 3113 244 3450 492 
Q 3788 741 3938 1234 
L 4513 1234 
z
" transform="scale(0.015625)"/>
       <path id="DejaVuSerif-29" d="M 453 -997 
L 453 -691 
Q 934 -359 1145 242 
Q 1356 844 1356 1931 
Q 1356 3022 1145 3623 
Q 934 4225 453 4556 
L 453 4863 
Q 1216 4522 1603 3783 
Q 1991 3044 1991 1931 
Q 1991 822 1603 83 
Q 1216 -656 453 -997 
z
" transform="scale(0.015625)"/>
      </defs>
      <use xlink:href="#DejaVuSerif-4d"/>
      <use xlink:href="#DejaVuSerif-4c" x="102.392578"/>
      <use xlink:href="#DejaVuSerif-2d" x="168.798828"/>
      <use xlink:href="#DejaVuSerif-50" x="202.587891"/>
      <use xlink:href="#DejaVuSerif-72" x="269.873047"/>
      <use xlink:href="#DejaVuSerif-65" x="317.675781"/>
      <use xlink:href="#DejaVuSerif-64" x="376.855469"/>
      <use xlink:href="#DejaVuSerif-69" x="440.869141"/>
      <use xlink:href="#DejaVuSerif-63" x="472.851562"/>
      <use xlink:href="#DejaVuSerif-74" x="528.857422"/>
      <use xlink:href="#DejaVuSerif-65" x="569.042969"/>
      <use xlink:href="#DejaVuSerif-64" x="628.222656"/>
      <use xlink:href="#DejaVuSerif-20" x="692.236328"/>
      <use xlink:href="#DejaVuSerif-28" x="724.023438"/>
      <use xlink:href="#DejaVuSerif-43" x="763.037109"/>
      <use xlink:href="#DejaVuSerif-6f" x="839.550781"/>
      <use xlink:href="#DejaVuSerif-6e" x="899.755859"/>
      <use xlink:href="#DejaVuSerif-73" x="964.160156"/>
      <use xlink:href="#DejaVuSerif-69" x="1015.478516"/>
      <use xlink:href="#DejaVuSerif-64" x="1047.460938"/>
      <use xlink:href="#DejaVuSerif-65" x="1111.474609"/>
      <use xlink:href="#DejaVuSerif-72" x="1170.654297"/>
      <use xlink:href="#DejaVuSerif-65" x="1218.457031"/>
      <use xlink:href="#DejaVuSerif-64" x="1277.636719"/>
      <use xlink:href="#DejaVuSerif-29" x="1341.650391"/>
     </g>
    </g>
    <g id="line2d_7">
     <path d="M 392.649574 8.411238 
L 402.649574 8.411238 
L 412.649574 8.411238 
" style="fill: none; stroke-dasharray: 5.55,2.4; stroke-dashoffset: 0; stroke: #08298a; stroke-width: 1.5"/>
    </g>
    <g id="text_5">
     <!-- ML-Predicted (Ignored) -->
     <g transform="translate(420.649574 11.911238) scale(0.1 -0.1)">
      <defs>
       <path id="DejaVuSerif-49" d="M 1581 331 
L 2175 331 
L 2175 0 
L 353 0 
L 353 331 
L 947 331 
L 947 4331 
L 353 4331 
L 353 4666 
L 2175 4666 
L 2175 4331 
L 1581 4331 
L 1581 331 
z
" transform="scale(0.015625)"/>
       <path id="DejaVuSerif-67" d="M 3359 2988 
L 3359 72 
Q 3359 -644 2965 -1033 
Q 2572 -1422 1844 -1422 
Q 1516 -1422 1216 -1362 
Q 916 -1303 641 -1184 
L 641 -488 
L 941 -488 
Q 997 -813 1206 -963 
Q 1416 -1113 1806 -1113 
Q 2313 -1113 2548 -827 
Q 2784 -541 2784 72 
L 2784 519 
Q 2616 206 2355 57 
Q 2094 -91 1709 -91 
Q 1097 -91 708 395 
Q 319 881 319 1663 
Q 319 2444 706 2928 
Q 1094 3413 1709 3413 
Q 2094 3413 2355 3264 
Q 2616 3116 2784 2803 
L 2784 3322 
L 3909 3322 
L 3909 2988 
L 3359 2988 
z
M 2784 1825 
Q 2784 2422 2554 2737 
Q 2325 3053 1888 3053 
Q 1444 3053 1217 2703 
Q 991 2353 991 1663 
Q 991 975 1217 622 
Q 1444 269 1888 269 
Q 2325 269 2554 583 
Q 2784 897 2784 1497 
L 2784 1825 
z
" transform="scale(0.015625)"/>
      </defs>
      <use xlink:href="#DejaVuSerif-4d"/>
      <use xlink:href="#DejaVuSerif-4c" x="102.392578"/>
      <use xlink:href="#DejaVuSerif-2d" x="168.798828"/>
      <use xlink:href="#DejaVuSerif-50" x="202.587891"/>
      <use xlink:href="#DejaVuSerif-72" x="269.873047"/>
      <use xlink:href="#DejaVuSerif-65" x="317.675781"/>
      <use xlink:href="#DejaVuSerif-64" x="376.855469"/>
      <use xlink:href="#DejaVuSerif-69" x="440.869141"/>
      <use xlink:href="#DejaVuSerif-63" x="472.851562"/>
      <use xlink:href="#DejaVuSerif-74" x="528.857422"/>
      <use xlink:href="#DejaVuSerif-65" x="569.042969"/>
      <use xlink:href="#DejaVuSerif-64" x="628.222656"/>
      <use xlink:href="#DejaVuSerif-20" x="692.236328"/>
      <use xlink:href="#DejaVuSerif-28" x="724.023438"/>
      <use xlink:href="#DejaVuSerif-49" x="763.037109"/>
      <use xlink:href="#DejaVuSerif-67" x="802.539062"/>
      <use xlink:href="#DejaVuSerif-6e" x="866.552734"/>
      <use xlink:href="#DejaVuSerif-6f" x="930.957031"/>
      <use xlink:href="#DejaVuSerif-72" x="991.162109"/>
      <use xlink:href="#DejaVuSerif-65" x="1038.964844"/>
      <use xlink:href="#DejaVuSerif-64" x="1098.144531"/>
      <use xlink:href="#DejaVuSerif-29" x="1162.158203"/>
     </g>
    </g>
   </g>
  </g>
  <g id="axes_2">
   <g id="patch_8">
    <path d="M 315.490909 224.28 
L 518.4 224.28 
L 518.4 30.24 
L 315.490909 30.24 
z
" style="fill: #ffffff"/>
   </g>
   <g id="matplotlib.axis_3">
    <g id="text_6">
     <!-- Density -->
     <g transform="translate(388.164205 239.464375) scale(0.15 -0.15)">
      <use xlink:href="#DejaVuSerif-44"/>
      <use xlink:href="#DejaVuSerif-65" x="80.175781"/>
      <use xlink:href="#DejaVuSerif-6e" x="139.355469"/>
      <use xlink:href="#DejaVuSerif-73" x="203.759766"/>
      <use xlink:href="#DejaVuSerif-69" x="255.078125"/>
      <use xlink:href="#DejaVuSerif-74" x="287.060547"/>
      <use xlink:href="#DejaVuSerif-79" x="327.246094"/>
     </g>
    </g>
   </g>
   <g id="matplotlib.axis_4">
    <g id="text_7">
     <!-- Reduced Temperature -->
     <g transform="translate(308.371378 211.939687) rotate(-90) scale(0.15 -0.15)">
      <defs>
       <path id="DejaVuSerif-52" d="M 3066 2316 
Q 3284 2256 3442 2114 
Q 3600 1972 3725 1716 
L 4403 331 
L 4972 331 
L 4972 0 
L 3872 0 
L 3144 1484 
Q 2934 1916 2759 2042 
Q 2584 2169 2278 2169 
L 1581 2169 
L 1581 331 
L 2241 331 
L 2241 0 
L 353 0 
L 353 331 
L 947 331 
L 947 4331 
L 353 4331 
L 353 4666 
L 2719 4666 
Q 3400 4666 3770 4341 
Q 4141 4016 4141 3419 
Q 4141 2938 3870 2661 
Q 3600 2384 3066 2316 
z
M 1581 2503 
L 2503 2503 
Q 2975 2503 3200 2726 
Q 3425 2950 3425 3419 
Q 3425 3888 3200 4109 
Q 2975 4331 2503 4331 
L 1581 4331 
L 1581 2503 
z
" transform="scale(0.015625)"/>
      </defs>
      <use xlink:href="#DejaVuSerif-52"/>
      <use xlink:href="#DejaVuSerif-65" x="75.292969"/>
      <use xlink:href="#DejaVuSerif-64" x="134.472656"/>
      <use xlink:href="#DejaVuSerif-75" x="198.486328"/>
      <use xlink:href="#DejaVuSerif-63" x="262.890625"/>
      <use xlink:href="#DejaVuSerif-65" x="318.896484"/>
      <use xlink:href="#DejaVuSerif-64" x="378.076172"/>
      <use xlink:href="#DejaVuSerif-20" x="442.089844"/>
      <use xlink:href="#DejaVuSerif-54" x="473.876953"/>
      <use xlink:href="#DejaVuSerif-65" x="532.826172"/>
      <use xlink:href="#DejaVuSerif-6d" x="592.005859"/>
      <use xlink:href="#DejaVuSerif-70" x="686.830078"/>
      <use xlink:href="#DejaVuSerif-65" x="750.84375"/>
      <use xlink:href="#DejaVuSerif-72" x="810.023438"/>
      <use xlink:href="#DejaVuSerif-61" x="857.826172"/>
      <use xlink:href="#DejaVuSerif-74" x="917.445312"/>
      <use xlink:href="#DejaVuSerif-75" x="957.630859"/>
      <use xlink:href="#DejaVuSerif-72" x="1022.035156"/>
      <use xlink:href="#DejaVuSerif-65" x="1069.837891"/>
     </g>
    </g>
   </g>
   <g id="line2d_8">
    <path d="M 347.771901 208.328467 
L 352.638382 206.9625 
L 357.504863 205.348355 
L 361.676133 203.736185 
L 365.847402 201.882248 
L 370.018672 199.754055 
L 373.49473 197.745286 
L 376.970788 195.498631 
L 380.446846 192.98986 
L 383.922904 190.193153 
L 387.398962 187.081228 
L 390.87502 183.62555 
L 394.351078 179.796641 
L 397.827136 175.564532 
L 401.303194 170.899382 
L 404.779252 165.772315 
L 408.25531 160.156521 
L 411.731368 154.028695 
L 415.207426 147.370889 
L 418.683484 140.172868 
L 422.159542 132.435097 
L 425.635599 124.172496 
L 429.806869 113.614244 
L 434.67335 100.552129 
L 442.320678 79.159963 
L 447.187159 65.835196 
L 449.968005 58.71412 
L 452.748852 52.225764 
L 454.834486 47.94047 
L 456.22491 45.43609 
L 457.615333 43.267587 
L 459.005756 41.48639 
L 460.396179 40.149025 
L 461.786602 39.317548 
L 462.481814 39.112537 
L 463.177026 39.060015 
L 463.872237 39.169509 
L 464.567449 39.450986 
L 465.26266 39.914874 
L 465.957872 40.572075 
L 466.653084 41.433989 
L 467.348295 42.512534 
L 468.043507 43.820163 
L 469.43393 47.175313 
L 470.824353 51.610677 
L 472.214776 57.247578 
L 473.6052 64.218248 
L 474.995623 72.666714 
L 476.386046 82.749754 
L 477.776469 94.637929 
L 479.166892 108.516685 
L 480.557316 124.587549 
L 481.947739 143.06941 
L 483.338162 164.199898 
L 484.728585 188.236868 
L 486.119008 215.46 
L 486.119008 215.46 
" clip-path="url(#p6dabad8c81)" style="fill: none; stroke: #5dc90a; stroke-width: 1.5; stroke-linecap: square"/>
   </g>
   <g id="line2d_9">
    <path d="M 324.71405 180.329802 
L 330.275742 177.021888 
L 335.837435 173.443142 
L 341.399128 169.578484 
L 346.960821 165.413414 
L 352.522513 160.934414 
L 358.084206 156.129438 
L 363.645899 150.988506 
L 369.207592 145.504437 
L 374.769284 139.67373 
L 380.330977 133.497621 
L 385.89267 126.98336 
L 391.454363 120.145731 
L 397.943004 111.792599 
L 405.358595 101.824171 
L 414.628083 88.930204 
L 428.532314 69.560116 
L 434.094007 62.210898 
L 438.728751 56.468393 
L 442.436546 52.225764 
L 445.217393 49.303836 
L 447.998239 46.649322 
L 450.779086 44.306754 
L 453.559932 42.325167 
L 455.413829 41.231069 
L 457.267727 40.338536 
L 459.121625 39.665944 
L 460.975522 39.232839 
L 462.82942 39.06 
L 464.683317 39.169509 
L 466.537215 39.584819 
L 468.391113 40.330835 
L 470.24501 41.433989 
L 472.098908 42.922325 
L 473.952805 44.825588 
L 475.806703 47.175313 
L 477.660601 50.004926 
L 479.514498 53.349843 
L 481.368396 57.247578 
L 483.222293 61.737857 
L 485.076191 66.862734 
L 486.930088 72.666714 
L 488.783986 79.196888 
L 490.637884 86.503068 
L 492.491781 94.637929 
L 494.345679 103.657162 
L 496.199576 113.619633 
L 498.053474 124.587549 
L 499.907372 136.626634 
L 501.761269 149.806311 
L 503.615167 164.199898 
L 505.469064 179.884805 
L 507.322962 196.942755 
L 509.17686 215.46 
L 509.17686 215.46 
" clip-path="url(#p6dabad8c81)" style="fill: none; stroke: #08298a; stroke-width: 1.5; stroke-linecap: square"/>
   </g>
   <g id="patch_9">
    <path d="M 315.490909 224.28 
L 315.490909 30.24 
" style="fill: none; stroke: #000000; stroke-width: 0.8; stroke-linejoin: miter; stroke-linecap: square"/>
   </g>
   <g id="patch_10">
    <path d="M 518.4 224.28 
L 518.4 30.24 
" style="fill: none; stroke: #000000; stroke-width: 0.8; stroke-linejoin: miter; stroke-linecap: square"/>
   </g>
   <g id="patch_11">
    <path d="M 315.490909 224.28 
L 518.4 224.28 
" style="fill: none; stroke: #000000; stroke-width: 0.8; stroke-linejoin: miter; stroke-linecap: square"/>
   </g>
   <g id="patch_12">
    <path d="M 315.490909 30.24 
L 518.4 30.24 
" style="fill: none; stroke: #000000; stroke-width: 0.8; stroke-linejoin: miter; stroke-linecap: square"/>
   </g>
  </g>
 </g>
 <defs>
  <clipPath id="pd999a4e371">
   <rect x="72" y="30.24" width="202.909091" height="194.04"/>
  </clipPath>
  <clipPath id="p6dabad8c81">
   <rect x="315.490909" y="30.24" width="202.909091" height="194.04"/>
  </clipPath>
 </defs>
</svg>
