<?xml version="1.0" encoding="utf-8" standalone="no"?>
<!DOCTYPE svg PUBLIC "-//W3C//DTD SVG 1.1//EN"
  "http://www.w3.org/Graphics/SVG/1.1/DTD/svg11.dtd">
<svg xmlns:xlink="http://www.w3.org/1999/xlink" width="576pt" height="432pt" viewBox="0 0 576 432" xmlns="http://www.w3.org/2000/svg" version="1.1">
 <metadata>
  <rdf:RDF xmlns:dc="http://purl.org/dc/elements/1.1/" xmlns:cc="http://creativecommons.org/ns#" xmlns:rdf="http://www.w3.org/1999/02/22-rdf-syntax-ns#">
   <cc:Work>
    <dc:type rdf:resource="http://purl.org/dc/dcmitype/StillImage"/>
    <dc:date>2023-11-29T15:26:19.218219</dc:date>
    <dc:format>image/svg+xml</dc:format>
    <dc:creator>
     <cc:Agent>
      <dc:title>Matplotlib v3.8.0, https://matplotlib.org/</dc:title>
     </cc:Agent>
    </dc:creator>
   </cc:Work>
  </rdf:RDF>
 </metadata>
 <defs>
  <style type="text/css">*{stroke-linejoin: round; stroke-linecap: butt}</style>
 </defs>
 <g id="figure_1">
  <g id="patch_1">
   <path d="M 0 432 
L 576 432 
L 576 0 
L 0 0 
z
" style="fill: #ffffff"/>
  </g>
  <g id="axes_1">
   <g id="patch_2">
    <path d="M 53.618885 385.9 
L 565.2 385.9 
L 565.2 10.8 
L 53.618885 10.8 
z
" style="fill: #ffffff"/>
   </g>
   <g id="matplotlib.axis_1">
    <g id="xtick_1">
     <g id="line2d_1">
      <defs>
       <path id="m89fa20756f" d="M 0 0 
L 0 3.5 
" style="stroke: #000000; stroke-width: 0.8"/>
      </defs>
      <g>
       <use xlink:href="#m89fa20756f" x="53.618885" y="385.9" style="stroke: #000000; stroke-width: 0.8"/>
      </g>
     </g>
     <g id="text_1">
      <!-- 0 -->
      <g transform="translate(50.437635 400.498438) scale(0.1 -0.1)">
       <defs>
        <path id="DejaVuSans-30" d="M 2034 4250 
Q 1547 4250 1301 3770 
Q 1056 3291 1056 2328 
Q 1056 1369 1301 889 
Q 1547 409 2034 409 
Q 2525 409 2770 889 
Q 3016 1369 3016 2328 
Q 3016 3291 2770 3770 
Q 2525 4250 2034 4250 
z
M 2034 4750 
Q 2819 4750 3233 4129 
Q 3647 3509 3647 2328 
Q 3647 1150 3233 529 
Q 2819 -91 2034 -91 
Q 1250 -91 836 529 
Q 422 1150 422 2328 
Q 422 3509 836 4129 
Q 1250 4750 2034 4750 
z
" transform="scale(0.015625)"/>
       </defs>
       <use xlink:href="#DejaVuSans-30"/>
      </g>
     </g>
    </g>
    <g id="xtick_2">
     <g id="line2d_2">
      <g>
       <use xlink:href="#m89fa20756f" x="132.323672" y="385.9" style="stroke: #000000; stroke-width: 0.8"/>
      </g>
     </g>
     <g id="text_2">
      <!-- 200 -->
      <g transform="translate(122.779922 400.498438) scale(0.1 -0.1)">
       <defs>
        <path id="DejaVuSans-32" d="M 1228 531 
L 3431 531 
L 3431 0 
L 469 0 
L 469 531 
Q 828 903 1448 1529 
Q 2069 2156 2228 2338 
Q 2531 2678 2651 2914 
Q 2772 3150 2772 3378 
Q 2772 3750 2511 3984 
Q 2250 4219 1831 4219 
Q 1534 4219 1204 4116 
Q 875 4013 500 3803 
L 500 4441 
Q 881 4594 1212 4672 
Q 1544 4750 1819 4750 
Q 2544 4750 2975 4387 
Q 3406 4025 3406 3419 
Q 3406 3131 3298 2873 
Q 3191 2616 2906 2266 
Q 2828 2175 2409 1742 
Q 1991 1309 1228 531 
z
" transform="scale(0.015625)"/>
       </defs>
       <use xlink:href="#DejaVuSans-32"/>
       <use xlink:href="#DejaVuSans-30" x="63.623047"/>
       <use xlink:href="#DejaVuSans-30" x="127.246094"/>
      </g>
     </g>
    </g>
    <g id="xtick_3">
     <g id="line2d_3">
      <g>
       <use xlink:href="#m89fa20756f" x="211.028459" y="385.9" style="stroke: #000000; stroke-width: 0.8"/>
      </g>
     </g>
     <g id="text_3">
      <!-- 400 -->
      <g transform="translate(201.484709 400.498438) scale(0.1 -0.1)">
       <defs>
        <path id="DejaVuSans-34" d="M 2419 4116 
L 825 1625 
L 2419 1625 
L 2419 4116 
z
M 2253 4666 
L 3047 4666 
L 3047 1625 
L 3713 1625 
L 3713 1100 
L 3047 1100 
L 3047 0 
L 2419 0 
L 2419 1100 
L 313 1100 
L 313 1709 
L 2253 4666 
z
" transform="scale(0.015625)"/>
       </defs>
       <use xlink:href="#DejaVuSans-34"/>
       <use xlink:href="#DejaVuSans-30" x="63.623047"/>
       <use xlink:href="#DejaVuSans-30" x="127.246094"/>
      </g>
     </g>
    </g>
    <g id="xtick_4">
     <g id="line2d_4">
      <g>
       <use xlink:href="#m89fa20756f" x="289.733246" y="385.9" style="stroke: #000000; stroke-width: 0.8"/>
      </g>
     </g>
     <g id="text_4">
      <!-- 600 -->
      <g transform="translate(280.189496 400.498438) scale(0.1 -0.1)">
       <defs>
        <path id="DejaVuSans-36" d="M 2113 2584 
Q 1688 2584 1439 2293 
Q 1191 2003 1191 1497 
Q 1191 994 1439 701 
Q 1688 409 2113 409 
Q 2538 409 2786 701 
Q 3034 994 3034 1497 
Q 3034 2003 2786 2293 
Q 2538 2584 2113 2584 
z
M 3366 4563 
L 3366 3988 
Q 3128 4100 2886 4159 
Q 2644 4219 2406 4219 
Q 1781 4219 1451 3797 
Q 1122 3375 1075 2522 
Q 1259 2794 1537 2939 
Q 1816 3084 2150 3084 
Q 2853 3084 3261 2657 
Q 3669 2231 3669 1497 
Q 3669 778 3244 343 
Q 2819 -91 2113 -91 
Q 1303 -91 875 529 
Q 447 1150 447 2328 
Q 447 3434 972 4092 
Q 1497 4750 2381 4750 
Q 2619 4750 2861 4703 
Q 3103 4656 3366 4563 
z
" transform="scale(0.015625)"/>
       </defs>
       <use xlink:href="#DejaVuSans-36"/>
       <use xlink:href="#DejaVuSans-30" x="63.623047"/>
       <use xlink:href="#DejaVuSans-30" x="127.246094"/>
      </g>
     </g>
    </g>
    <g id="xtick_5">
     <g id="line2d_5">
      <g>
       <use xlink:href="#m89fa20756f" x="368.438033" y="385.9" style="stroke: #000000; stroke-width: 0.8"/>
      </g>
     </g>
     <g id="text_5">
      <!-- 800 -->
      <g transform="translate(358.894283 400.498438) scale(0.1 -0.1)">
       <defs>
        <path id="DejaVuSans-38" d="M 2034 2216 
Q 1584 2216 1326 1975 
Q 1069 1734 1069 1313 
Q 1069 891 1326 650 
Q 1584 409 2034 409 
Q 2484 409 2743 651 
Q 3003 894 3003 1313 
Q 3003 1734 2745 1975 
Q 2488 2216 2034 2216 
z
M 1403 2484 
Q 997 2584 770 2862 
Q 544 3141 544 3541 
Q 544 4100 942 4425 
Q 1341 4750 2034 4750 
Q 2731 4750 3128 4425 
Q 3525 4100 3525 3541 
Q 3525 3141 3298 2862 
Q 3072 2584 2669 2484 
Q 3125 2378 3379 2068 
Q 3634 1759 3634 1313 
Q 3634 634 3220 271 
Q 2806 -91 2034 -91 
Q 1263 -91 848 271 
Q 434 634 434 1313 
Q 434 1759 690 2068 
Q 947 2378 1403 2484 
z
M 1172 3481 
Q 1172 3119 1398 2916 
Q 1625 2713 2034 2713 
Q 2441 2713 2670 2916 
Q 2900 3119 2900 3481 
Q 2900 3844 2670 4047 
Q 2441 4250 2034 4250 
Q 1625 4250 1398 4047 
Q 1172 3844 1172 3481 
z
" transform="scale(0.015625)"/>
       </defs>
       <use xlink:href="#DejaVuSans-38"/>
       <use xlink:href="#DejaVuSans-30" x="63.623047"/>
       <use xlink:href="#DejaVuSans-30" x="127.246094"/>
      </g>
     </g>
    </g>
    <g id="xtick_6">
     <g id="line2d_6">
      <g>
       <use xlink:href="#m89fa20756f" x="447.14282" y="385.9" style="stroke: #000000; stroke-width: 0.8"/>
      </g>
     </g>
     <g id="text_6">
      <!-- 1000 -->
      <g transform="translate(434.41782 400.498438) scale(0.1 -0.1)">
       <defs>
        <path id="DejaVuSans-31" d="M 794 531 
L 1825 531 
L 1825 4091 
L 703 3866 
L 703 4441 
L 1819 4666 
L 2450 4666 
L 2450 531 
L 3481 531 
L 3481 0 
L 794 0 
L 794 531 
z
" transform="scale(0.015625)"/>
       </defs>
       <use xlink:href="#DejaVuSans-31"/>
       <use xlink:href="#DejaVuSans-30" x="63.623047"/>
       <use xlink:href="#DejaVuSans-30" x="127.246094"/>
       <use xlink:href="#DejaVuSans-30" x="190.869141"/>
      </g>
     </g>
    </g>
    <g id="xtick_7">
     <g id="line2d_7">
      <g>
       <use xlink:href="#m89fa20756f" x="525.847607" y="385.9" style="stroke: #000000; stroke-width: 0.8"/>
      </g>
     </g>
     <g id="text_7">
      <!-- 1200 -->
      <g transform="translate(513.122607 400.498438) scale(0.1 -0.1)">
       <use xlink:href="#DejaVuSans-31"/>
       <use xlink:href="#DejaVuSans-32" x="63.623047"/>
       <use xlink:href="#DejaVuSans-30" x="127.246094"/>
       <use xlink:href="#DejaVuSans-30" x="190.869141"/>
      </g>
     </g>
    </g>
    <g id="text_8">
     <!-- Epoch -->
     <g transform="translate(286.443036 417.975781) scale(0.15 -0.15)">
      <defs>
       <path id="DejaVuSans-45" d="M 628 4666 
L 3578 4666 
L 3578 4134 
L 1259 4134 
L 1259 2753 
L 3481 2753 
L 3481 2222 
L 1259 2222 
L 1259 531 
L 3634 531 
L 3634 0 
L 628 0 
L 628 4666 
z
" transform="scale(0.015625)"/>
       <path id="DejaVuSans-70" d="M 1159 525 
L 1159 -1331 
L 581 -1331 
L 581 3500 
L 1159 3500 
L 1159 2969 
Q 1341 3281 1617 3432 
Q 1894 3584 2278 3584 
Q 2916 3584 3314 3078 
Q 3713 2572 3713 1747 
Q 3713 922 3314 415 
Q 2916 -91 2278 -91 
Q 1894 -91 1617 61 
Q 1341 213 1159 525 
z
M 3116 1747 
Q 3116 2381 2855 2742 
Q 2594 3103 2138 3103 
Q 1681 3103 1420 2742 
Q 1159 2381 1159 1747 
Q 1159 1113 1420 752 
Q 1681 391 2138 391 
Q 2594 391 2855 752 
Q 3116 1113 3116 1747 
z
" transform="scale(0.015625)"/>
       <path id="DejaVuSans-6f" d="M 1959 3097 
Q 1497 3097 1228 2736 
Q 959 2375 959 1747 
Q 959 1119 1226 758 
Q 1494 397 1959 397 
Q 2419 397 2687 759 
Q 2956 1122 2956 1747 
Q 2956 2369 2687 2733 
Q 2419 3097 1959 3097 
z
M 1959 3584 
Q 2709 3584 3137 3096 
Q 3566 2609 3566 1747 
Q 3566 888 3137 398 
Q 2709 -91 1959 -91 
Q 1206 -91 779 398 
Q 353 888 353 1747 
Q 353 2609 779 3096 
Q 1206 3584 1959 3584 
z
" transform="scale(0.015625)"/>
       <path id="DejaVuSans-63" d="M 3122 3366 
L 3122 2828 
Q 2878 2963 2633 3030 
Q 2388 3097 2138 3097 
Q 1578 3097 1268 2742 
Q 959 2388 959 1747 
Q 959 1106 1268 751 
Q 1578 397 2138 397 
Q 2388 397 2633 464 
Q 2878 531 3122 666 
L 3122 134 
Q 2881 22 2623 -34 
Q 2366 -91 2075 -91 
Q 1284 -91 818 406 
Q 353 903 353 1747 
Q 353 2603 823 3093 
Q 1294 3584 2113 3584 
Q 2378 3584 2631 3529 
Q 2884 3475 3122 3366 
z
" transform="scale(0.015625)"/>
       <path id="DejaVuSans-68" d="M 3513 2113 
L 3513 0 
L 2938 0 
L 2938 2094 
Q 2938 2591 2744 2837 
Q 2550 3084 2163 3084 
Q 1697 3084 1428 2787 
Q 1159 2491 1159 1978 
L 1159 0 
L 581 0 
L 581 4863 
L 1159 4863 
L 1159 2956 
Q 1366 3272 1645 3428 
Q 1925 3584 2291 3584 
Q 2894 3584 3203 3211 
Q 3513 2838 3513 2113 
z
" transform="scale(0.015625)"/>
      </defs>
      <use xlink:href="#DejaVuSans-45"/>
      <use xlink:href="#DejaVuSans-70" x="63.183594"/>
      <use xlink:href="#DejaVuSans-6f" x="126.660156"/>
      <use xlink:href="#DejaVuSans-63" x="187.841797"/>
      <use xlink:href="#DejaVuSans-68" x="242.822266"/>
     </g>
    </g>
   </g>
   <g id="matplotlib.axis_2">
    <g id="ytick_1">
     <g id="line2d_8">
      <defs>
       <path id="mfcc37af219" d="M 0 0 
L -3.5 0 
" style="stroke: #000000; stroke-width: 0.8"/>
      </defs>
      <g>
       <use xlink:href="#mfcc37af219" x="53.618885" y="337.636476" style="stroke: #000000; stroke-width: 0.8"/>
      </g>
     </g>
     <g id="text_9">
      <!-- $\mathdefault{10^{0}}$ -->
      <g transform="translate(29.018885 341.435695) scale(0.1 -0.1)">
       <use xlink:href="#DejaVuSans-31" transform="translate(0 0.765625)"/>
       <use xlink:href="#DejaVuSans-30" transform="translate(63.623047 0.765625)"/>
       <use xlink:href="#DejaVuSans-30" transform="translate(128.203125 39.046875) scale(0.7)"/>
      </g>
     </g>
    </g>
    <g id="ytick_2">
     <g id="line2d_9">
      <g>
       <use xlink:href="#mfcc37af219" x="53.618885" y="258.962639" style="stroke: #000000; stroke-width: 0.8"/>
      </g>
     </g>
     <g id="text_10">
      <!-- $\mathdefault{10^{2}}$ -->
      <g transform="translate(29.018885 262.761858) scale(0.1 -0.1)">
       <use xlink:href="#DejaVuSans-31" transform="translate(0 0.765625)"/>
       <use xlink:href="#DejaVuSans-30" transform="translate(63.623047 0.765625)"/>
       <use xlink:href="#DejaVuSans-32" transform="translate(128.203125 39.046875) scale(0.7)"/>
      </g>
     </g>
    </g>
    <g id="ytick_3">
     <g id="line2d_10">
      <g>
       <use xlink:href="#mfcc37af219" x="53.618885" y="180.288802" style="stroke: #000000; stroke-width: 0.8"/>
      </g>
     </g>
     <g id="text_11">
      <!-- $\mathdefault{10^{4}}$ -->
      <g transform="translate(29.018885 184.08802) scale(0.1 -0.1)">
       <use xlink:href="#DejaVuSans-31" transform="translate(0 0.684375)"/>
       <use xlink:href="#DejaVuSans-30" transform="translate(63.623047 0.684375)"/>
       <use xlink:href="#DejaVuSans-34" transform="translate(128.203125 38.965625) scale(0.7)"/>
      </g>
     </g>
    </g>
    <g id="ytick_4">
     <g id="line2d_11">
      <g>
       <use xlink:href="#mfcc37af219" x="53.618885" y="101.614965" style="stroke: #000000; stroke-width: 0.8"/>
      </g>
     </g>
     <g id="text_12">
      <!-- $\mathdefault{10^{6}}$ -->
      <g transform="translate(29.018885 105.414183) scale(0.1 -0.1)">
       <use xlink:href="#DejaVuSans-31" transform="translate(0 0.765625)"/>
       <use xlink:href="#DejaVuSans-30" transform="translate(63.623047 0.765625)"/>
       <use xlink:href="#DejaVuSans-36" transform="translate(128.203125 39.046875) scale(0.7)"/>
      </g>
     </g>
    </g>
    <g id="ytick_5">
     <g id="line2d_12">
      <g>
       <use xlink:href="#mfcc37af219" x="53.618885" y="22.941127" style="stroke: #000000; stroke-width: 0.8"/>
      </g>
     </g>
     <g id="text_13">
      <!-- $\mathdefault{10^{8}}$ -->
      <g transform="translate(29.018885 26.740346) scale(0.1 -0.1)">
       <use xlink:href="#DejaVuSans-31" transform="translate(0 0.765625)"/>
       <use xlink:href="#DejaVuSans-30" transform="translate(63.623047 0.765625)"/>
       <use xlink:href="#DejaVuSans-38" transform="translate(128.203125 39.046875) scale(0.7)"/>
      </g>
     </g>
    </g>
    <g id="text_14">
     <!-- Batch Loss -->
     <g transform="translate(21.899354 238.743359) rotate(-90) scale(0.15 -0.15)">
      <defs>
       <path id="DejaVuSans-42" d="M 1259 2228 
L 1259 519 
L 2272 519 
Q 2781 519 3026 730 
Q 3272 941 3272 1375 
Q 3272 1813 3026 2020 
Q 2781 2228 2272 2228 
L 1259 2228 
z
M 1259 4147 
L 1259 2741 
L 2194 2741 
Q 2656 2741 2882 2914 
Q 3109 3088 3109 3444 
Q 3109 3797 2882 3972 
Q 2656 4147 2194 4147 
L 1259 4147 
z
M 628 4666 
L 2241 4666 
Q 2963 4666 3353 4366 
Q 3744 4066 3744 3513 
Q 3744 3084 3544 2831 
Q 3344 2578 2956 2516 
Q 3422 2416 3680 2098 
Q 3938 1781 3938 1306 
Q 3938 681 3513 340 
Q 3088 0 2303 0 
L 628 0 
L 628 4666 
z
" transform="scale(0.015625)"/>
       <path id="DejaVuSans-61" d="M 2194 1759 
Q 1497 1759 1228 1600 
Q 959 1441 959 1056 
Q 959 750 1161 570 
Q 1363 391 1709 391 
Q 2188 391 2477 730 
Q 2766 1069 2766 1631 
L 2766 1759 
L 2194 1759 
z
M 3341 1997 
L 3341 0 
L 2766 0 
L 2766 531 
Q 2569 213 2275 61 
Q 1981 -91 1556 -91 
Q 1019 -91 701 211 
Q 384 513 384 1019 
Q 384 1609 779 1909 
Q 1175 2209 1959 2209 
L 2766 2209 
L 2766 2266 
Q 2766 2663 2505 2880 
Q 2244 3097 1772 3097 
Q 1472 3097 1187 3025 
Q 903 2953 641 2809 
L 641 3341 
Q 956 3463 1253 3523 
Q 1550 3584 1831 3584 
Q 2591 3584 2966 3190 
Q 3341 2797 3341 1997 
z
" transform="scale(0.015625)"/>
       <path id="DejaVuSans-74" d="M 1172 4494 
L 1172 3500 
L 2356 3500 
L 2356 3053 
L 1172 3053 
L 1172 1153 
Q 1172 725 1289 603 
Q 1406 481 1766 481 
L 2356 481 
L 2356 0 
L 1766 0 
Q 1100 0 847 248 
Q 594 497 594 1153 
L 594 3053 
L 172 3053 
L 172 3500 
L 594 3500 
L 594 4494 
L 1172 4494 
z
" transform="scale(0.015625)"/>
       <path id="DejaVuSans-20" transform="scale(0.015625)"/>
       <path id="DejaVuSans-4c" d="M 628 4666 
L 1259 4666 
L 1259 531 
L 3531 531 
L 3531 0 
L 628 0 
L 628 4666 
z
" transform="scale(0.015625)"/>
       <path id="DejaVuSans-73" d="M 2834 3397 
L 2834 2853 
Q 2591 2978 2328 3040 
Q 2066 3103 1784 3103 
Q 1356 3103 1142 2972 
Q 928 2841 928 2578 
Q 928 2378 1081 2264 
Q 1234 2150 1697 2047 
L 1894 2003 
Q 2506 1872 2764 1633 
Q 3022 1394 3022 966 
Q 3022 478 2636 193 
Q 2250 -91 1575 -91 
Q 1294 -91 989 -36 
Q 684 19 347 128 
L 347 722 
Q 666 556 975 473 
Q 1284 391 1588 391 
Q 1994 391 2212 530 
Q 2431 669 2431 922 
Q 2431 1156 2273 1281 
Q 2116 1406 1581 1522 
L 1381 1569 
Q 847 1681 609 1914 
Q 372 2147 372 2553 
Q 372 3047 722 3315 
Q 1072 3584 1716 3584 
Q 2034 3584 2315 3537 
Q 2597 3491 2834 3397 
z
" transform="scale(0.015625)"/>
      </defs>
      <use xlink:href="#DejaVuSans-42"/>
      <use xlink:href="#DejaVuSans-61" x="68.603516"/>
      <use xlink:href="#DejaVuSans-74" x="129.882812"/>
      <use xlink:href="#DejaVuSans-63" x="169.091797"/>
      <use xlink:href="#DejaVuSans-68" x="224.072266"/>
      <use xlink:href="#DejaVuSans-20" x="287.451172"/>
      <use xlink:href="#DejaVuSans-4c" x="319.238281"/>
      <use xlink:href="#DejaVuSans-6f" x="373.201172"/>
      <use xlink:href="#DejaVuSans-73" x="434.382812"/>
      <use xlink:href="#DejaVuSans-73" x="486.482422"/>
     </g>
    </g>
   </g>
   <g id="line2d_13">
    <path d="M 54.012409 27.85 
L 54.405933 80.430958 
L 54.799457 104.208501 
L 55.192981 119.741952 
L 55.586504 130.673488 
L 56.373552 144.256307 
L 57.1606 151.903599 
L 57.947648 156.880115 
L 59.12822 162.357729 
L 60.702316 168.460315 
L 63.850507 179.418334 
L 65.031079 182.543355 
L 66.605175 186.004069 
L 68.17927 188.929942 
L 70.14689 192.100638 
L 72.11451 194.885412 
L 74.475653 197.811337 
L 77.230321 200.863071 
L 82.739656 206.36558 
L 85.887847 208.985293 
L 89.036039 211.382217 
L 94.15185 214.969592 
L 98.874137 218.002954 
L 102.022329 220.002896 
L 117.763286 232.294043 
L 121.305002 234.698381 
L 124.453193 236.585318 
L 128.781956 238.874932 
L 134.291291 241.522195 
L 139.013579 243.729509 
L 141.768246 245.193663 
L 142.555294 245.641953 
L 144.12939 249.655664 
L 144.916438 251.102375 
L 145.703486 252.216263 
L 146.490533 252.913155 
L 146.884057 253.068064 
L 147.277581 253.547221 
L 149.638725 255.158282 
L 162.231491 262.778802 
L 167.740826 266.188973 
L 173.643685 269.579065 
L 174.824257 270.242416 
L 176.791876 272.593458 
L 178.365972 273.911769 
L 180.333592 275.21386 
L 183.481783 276.978401 
L 188.597594 279.52284 
L 193.319882 281.577252 
L 198.829217 283.677124 
L 207.093219 286.534531 
L 214.963698 289.037278 
L 225.982368 292.253898 
L 236.607514 295.146632 
L 255.890187 300.145197 
L 259.825427 301.480811 
L 264.15419 302.799874 
L 271.237621 304.61745 
L 288.15915 308.77669 
L 296.423153 310.439958 
L 308.228871 312.520746 
L 312.16411 313.304356 
L 316.886397 314.193417 
L 348.368312 319.256258 
L 449.897487 333.903612 
L 463.277301 335.736283 
L 473.508923 337.127203 
L 479.018258 337.890807 
L 480.19883 342.229444 
L 480.985878 344.924403 
L 481.772926 347.020829 
L 482.559974 348.61521 
L 483.740545 350.440533 
L 485.314641 352.189822 
L 486.888737 353.510491 
L 489.249881 355.020649 
L 491.2175 356.023496 
L 493.18512 356.873647 
L 497.907407 358.512677 
L 500.662075 359.279939 
L 503.416742 359.952612 
L 507.745506 360.913263 
L 511.287221 361.618299 
L 532.537513 364.916856 
L 533.718085 365.060391 
L 536.866277 365.470331 
L 541.982088 366.114286 
L 551.820186 367.230913 
L 553.000758 367.415777 
L 554.574854 367.602737 
L 557.329521 367.937384 
L 562.051809 368.493288 
L 565.2 368.85 
L 565.2 368.85 
" clip-path="url(#p06880e5136)" style="fill: none; stroke: #1f77b4; stroke-width: 1.5; stroke-linecap: square"/>
   </g>
   <g id="line2d_14">
    <path d="M 54.012409 117.544471 
L 54.405933 152.84557 
L 54.799457 173.623714 
L 55.192981 186.443637 
L 55.586504 194.90157 
L 56.373552 205.181374 
L 57.1606 211.29817 
L 57.947648 215.346373 
L 59.12822 219.766902 
L 60.308792 223.319275 
L 63.456983 231.114494 
L 64.637555 233.578844 
L 66.211651 236.297979 
L 68.17927 239.208222 
L 70.933938 242.802348 
L 73.688605 245.951873 
L 76.836797 249.148297 
L 80.378512 252.299991 
L 83.526704 254.854968 
L 91.003659 260.550525 
L 96.11947 263.75318 
L 99.267661 265.43125 
L 102.809377 267.066269 
L 104.776996 267.976265 
L 106.744616 269.298787 
L 107.925188 269.859985 
L 113.828047 272.210729 
L 120.12443 274.415552 
L 121.305002 274.693474 
L 127.207861 276.76762 
L 131.536624 278.574731 
L 134.684815 279.899171 
L 140.587674 282.104441 
L 143.342342 282.999211 
L 144.12939 283.218984 
L 144.916438 283.383797 
L 147.277581 284.245052 
L 148.064629 284.165285 
L 150.032249 284.905535 
L 150.819297 285.073367 
L 153.18044 285.794831 
L 158.296251 287.766222 
L 168.13435 292.529689 
L 176.791876 296.244957 
L 177.972448 296.608802 
L 179.15302 297.088583 
L 179.546544 297.163577 
L 180.727116 297.716655 
L 181.12064 297.735791 
L 181.514164 298.131766 
L 181.907688 298.201883 
L 182.301211 298.149186 
L 182.694735 298.286255 
L 183.088259 298.235396 
L 183.481783 298.632955 
L 184.662355 298.824594 
L 185.055879 299.053071 
L 185.842927 299.134521 
L 187.417023 299.524058 
L 187.810547 299.684861 
L 188.20407 299.717048 
L 188.597594 299.969419 
L 188.991118 299.955284 
L 189.384642 300.148681 
L 189.778166 300.16844 
L 190.17169 300.483658 
L 190.565214 300.436328 
L 190.958738 300.820526 
L 191.352262 300.859042 
L 191.745786 300.748282 
L 192.13931 300.829657 
L 192.532834 300.751535 
L 192.926358 301.180424 
L 193.319882 301.124581 
L 194.106929 301.247393 
L 194.893977 301.245219 
L 195.287501 301.438767 
L 195.681025 301.396373 
L 196.074549 301.656679 
L 196.468073 301.590231 
L 196.861597 301.821433 
L 197.255121 301.778611 
L 197.648645 301.991147 
L 198.042169 301.913315 
L 198.435693 302.120626 
L 198.829217 302.052485 
L 199.222741 302.217342 
L 199.616265 302.13598 
L 200.796836 302.411999 
L 201.19036 302.315816 
L 201.583884 302.763297 
L 201.977408 302.710725 
L 202.370932 302.387041 
L 202.764456 302.708342 
L 203.15798 302.485982 
L 203.551504 303.238286 
L 203.945028 303.283334 
L 204.338552 302.90909 
L 204.732076 303.079136 
L 205.1256 302.897683 
L 205.519124 303.428526 
L 205.912648 303.434853 
L 206.306171 303.206474 
L 206.699695 303.323939 
L 207.093219 303.066832 
L 207.486743 303.810655 
L 207.880267 303.801326 
L 208.273791 303.411516 
L 208.667315 303.593964 
L 209.060839 303.351245 
L 209.454363 303.924652 
L 209.847887 303.918128 
L 210.241411 303.663258 
L 210.634935 303.909918 
L 211.028459 303.583653 
L 211.815507 304.229252 
L 212.20903 303.874682 
L 212.602554 303.741579 
L 212.996078 303.816048 
L 213.389602 304.361348 
L 213.783126 303.984071 
L 214.17665 303.782772 
L 214.570174 304.290715 
L 214.963698 303.892703 
L 215.357222 304.528347 
L 215.750746 304.48923 
L 216.14427 303.678502 
L 216.537794 304.478757 
L 216.931318 304.534468 
L 217.324842 304.221654 
L 217.718366 304.252296 
L 218.11189 304.118754 
L 218.505413 304.236388 
L 218.898937 304.115554 
L 219.292461 304.582795 
L 219.685985 304.577482 
L 220.079509 304.286865 
L 220.473033 304.308842 
L 220.866557 304.2044 
L 221.260081 304.593177 
L 222.047129 304.382263 
L 222.834177 304.443404 
L 223.227701 304.19619 
L 223.621225 304.802329 
L 224.014749 304.636998 
L 224.408272 304.3114 
L 224.801796 304.579994 
L 225.19532 304.190041 
L 225.588844 304.96481 
L 225.982368 305.000019 
L 226.375892 304.330478 
L 226.769416 304.693241 
L 227.16294 304.470295 
L 227.556464 304.702516 
L 227.949988 304.67096 
L 228.343512 304.292637 
L 228.737036 304.734422 
L 229.524084 304.517144 
L 230.704655 304.401197 
L 231.098179 304.178477 
L 231.491703 304.878 
L 231.885227 304.745784 
L 232.278751 304.315623 
L 232.672275 304.713599 
L 233.065799 304.390096 
L 233.459323 304.710608 
L 233.852847 304.679489 
L 234.246371 304.202789 
L 234.639895 304.749438 
L 235.033419 304.547091 
L 235.820467 304.563382 
L 236.213991 304.299007 
L 236.607514 304.597564 
L 237.001038 304.478669 
L 237.788086 304.386154 
L 238.575134 304.23041 
L 238.968658 304.287875 
L 239.362182 304.148971 
L 239.755706 304.653498 
L 240.14923 304.554871 
L 240.542754 304.055275 
L 240.936278 304.569094 
L 241.723326 304.216858 
L 242.11685 304.242376 
L 242.510373 304.031975 
L 242.903897 304.604394 
L 243.297421 304.505275 
L 243.690945 304.075987 
L 244.084469 304.430801 
L 244.477993 304.15665 
L 245.265041 304.256037 
L 245.658565 304.006138 
L 246.052089 304.390792 
L 246.445613 304.191975 
L 247.232661 304.186605 
L 247.626185 304.018685 
L 248.019709 304.207173 
L 248.413232 303.99331 
L 248.806756 304.443794 
L 249.20028 304.374944 
L 249.593804 303.961935 
L 249.987328 304.32179 
L 250.380852 304.105677 
L 251.1679 304.1415 
L 251.561424 303.880106 
L 251.954948 304.279785 
L 252.348472 304.082146 
L 253.13552 304.042971 
L 253.529044 303.851853 
L 253.922568 304.071651 
L 254.316092 303.891231 
L 254.709615 304.037273 
L 255.890187 303.730329 
L 256.283711 304.024654 
L 256.677235 303.877278 
L 257.070759 304.115756 
L 257.857807 303.893389 
L 258.644855 304.108558 
L 259.038379 303.95909 
L 259.431903 304.428185 
L 259.825427 304.343059 
L 260.218951 304.012691 
L 260.612474 304.455561 
L 261.005998 304.225876 
L 261.793046 304.379708 
L 262.18657 304.06858 
L 262.580094 304.60132 
L 263.367142 304.196517 
L 263.760666 304.382721 
L 264.15419 304.077524 
L 264.547714 304.661719 
L 264.941238 304.682861 
L 265.334762 304.240813 
L 265.728286 304.446201 
L 266.12181 304.193639 
L 266.515333 304.512216 
L 266.908857 304.543909 
L 267.302381 304.260852 
L 267.695905 304.464917 
L 268.089429 304.207824 
L 268.482953 304.599281 
L 268.876477 304.607874 
L 269.270001 304.272443 
L 269.663525 304.456966 
L 270.057049 304.220231 
L 270.450573 304.659674 
L 270.844097 304.679702 
L 271.237621 304.342119 
L 271.631145 304.492402 
L 272.024669 304.251474 
L 272.418193 304.615256 
L 272.811716 304.62032 
L 273.20524 304.322127 
L 273.598764 304.559801 
L 273.992288 304.329731 
L 274.385812 304.606342 
L 274.779336 304.616672 
L 275.17286 304.34522 
L 275.566384 304.619853 
L 275.959908 304.406807 
L 276.353432 304.6019 
L 276.746956 304.613377 
L 277.14048 304.331755 
L 277.534004 304.772555 
L 278.321052 304.452066 
L 278.714575 304.607717 
L 279.108099 304.429809 
L 279.501623 304.884732 
L 279.895147 304.84071 
L 280.288671 304.506825 
L 280.682195 304.756163 
L 281.075719 304.512643 
L 281.469243 304.820182 
L 281.862767 304.85787 
L 282.256291 304.564036 
L 282.649815 304.779054 
L 283.043339 304.572405 
L 283.436863 304.891851 
L 283.830387 304.953671 
L 284.223911 304.721403 
L 284.617434 304.966972 
L 285.010958 304.794907 
L 285.404482 305.204033 
L 285.798006 305.222032 
L 286.19153 304.945831 
L 286.585054 305.17784 
L 286.978578 304.991956 
L 287.372102 305.363855 
L 287.765626 305.407241 
L 288.15915 305.164412 
L 288.552674 305.308948 
L 288.946198 305.095987 
L 289.339722 305.482211 
L 289.733246 305.5151 
L 290.12677 305.271291 
L 290.520294 305.505353 
L 290.913817 305.269476 
L 291.307341 305.686651 
L 291.700865 305.720581 
L 292.094389 305.433517 
L 292.487913 305.702059 
L 292.881437 305.513543 
L 293.274961 305.852349 
L 293.668485 305.894207 
L 294.062009 305.638743 
L 294.455533 305.94236 
L 294.849057 305.745055 
L 295.636105 305.928616 
L 296.029629 305.767105 
L 296.423153 306.032454 
L 296.816676 305.878071 
L 297.2102 306.018106 
L 297.997248 305.891388 
L 298.390772 306.126807 
L 298.784296 305.967506 
L 299.17782 306.287773 
L 299.571344 306.261309 
L 299.964868 306.048001 
L 300.358392 306.295532 
L 300.751916 306.108649 
L 301.14544 306.563858 
L 301.538964 306.602117 
L 301.932488 306.318169 
L 302.326012 306.647924 
L 302.719535 306.472056 
L 303.113059 306.728765 
L 303.506583 306.809163 
L 303.900107 306.5891 
L 304.293631 306.999345 
L 304.687155 306.860031 
L 305.474203 307.010553 
L 305.867727 306.825994 
L 306.261251 307.236109 
L 307.048299 307.115257 
L 307.441823 307.164729 
L 307.835347 307.030149 
L 308.228871 307.513441 
L 308.622395 307.461036 
L 309.015918 307.29594 
L 310.19649 307.494582 
L 310.590014 307.505943 
L 310.983538 307.670904 
L 311.377062 307.521599 
L 311.770586 307.637423 
L 312.557634 306.914652 
L 312.951158 306.85546 
L 313.344682 306.593226 
L 313.738206 306.80019 
L 314.13173 306.399255 
L 314.525254 306.428262 
L 315.312301 304.908015 
L 315.705825 304.87259 
L 316.099349 305.010915 
L 316.492873 304.809836 
L 316.886397 305.028158 
L 317.279921 304.398517 
L 317.673445 304.684448 
L 318.066969 303.475791 
L 318.460493 303.72348 
L 318.854017 304.200526 
L 319.247541 303.97336 
L 319.641065 303.115795 
L 320.034589 303.671404 
L 320.428113 302.728237 
L 320.821636 303.403198 
L 321.21516 302.611367 
L 321.608684 302.607777 
L 322.002208 302.823747 
L 322.395732 303.351505 
L 322.789256 301.865712 
L 323.18278 302.196745 
L 323.576304 302.375717 
L 323.969828 302.895343 
L 324.363352 301.759968 
L 324.756876 302.432445 
L 325.1504 301.969555 
L 325.543924 301.85216 
L 325.937448 302.536419 
L 326.330972 301.334357 
L 326.724496 301.72449 
L 327.118019 301.637596 
L 327.511543 301.991887 
L 327.905067 301.171657 
L 328.298591 301.096801 
L 328.692115 302.256796 
L 329.085639 300.498996 
L 329.479163 300.903354 
L 329.872687 301.514226 
L 330.266211 301.482319 
L 330.659735 300.538232 
L 331.053259 301.609352 
L 331.446783 300.136083 
L 331.840307 299.747008 
L 332.233831 301.70846 
L 332.627355 300.796384 
L 333.020878 300.763667 
L 333.414402 299.895387 
L 333.807926 299.746387 
L 334.20145 300.704709 
L 334.594974 300.766297 
L 334.988498 299.823984 
L 335.382022 301.033979 
L 335.775546 299.553524 
L 336.16907 298.854242 
L 336.562594 300.781445 
L 336.956118 300.387913 
L 337.349642 300.732192 
L 337.743166 299.180588 
L 338.13669 299.006957 
L 338.530214 300.999127 
L 338.923737 300.031345 
L 339.317261 300.297008 
L 339.710785 299.308068 
L 340.104309 298.916941 
L 340.497833 300.821898 
L 340.891357 299.245711 
L 341.284881 299.522045 
L 341.678405 299.120152 
L 342.071929 298.903481 
L 342.465453 300.389523 
L 342.858977 298.88824 
L 343.252501 298.970124 
L 344.039549 298.93579 
L 344.433073 299.741479 
L 344.826597 298.722116 
L 345.22012 299.31643 
L 345.613644 298.432899 
L 346.007168 298.533051 
L 346.400692 299.579032 
L 346.794216 298.60845 
L 347.581264 298.322732 
L 347.974788 298.890341 
L 348.368312 298.360599 
L 349.15536 298.593354 
L 349.548884 298.110595 
L 349.942408 298.789597 
L 350.335932 297.983795 
L 350.729456 298.59361 
L 351.122979 298.133855 
L 351.516503 297.97967 
L 351.910027 298.788385 
L 352.303551 298.019265 
L 352.697075 298.183249 
L 353.090599 297.843958 
L 353.877647 298.360433 
L 354.271171 298.015975 
L 354.664695 298.129246 
L 355.058219 297.912826 
L 355.845267 297.977928 
L 358.20641 297.698449 
L 358.599934 298.075362 
L 358.993458 297.416769 
L 359.386982 297.947583 
L 359.780506 297.527822 
L 360.17403 297.798641 
L 360.567554 297.623956 
L 361.748126 297.649736 
L 362.535174 297.652965 
L 362.928698 297.723554 
L 363.322221 297.528857 
L 363.715745 297.778813 
L 364.109269 297.363132 
L 364.502793 297.696121 
L 364.896317 297.425869 
L 366.076889 297.679218 
L 366.470413 297.409269 
L 366.863937 297.657523 
L 367.257461 297.552384 
L 367.650985 297.669042 
L 368.044509 297.551453 
L 369.22508 297.640691 
L 369.618604 297.334954 
L 370.012128 297.735216 
L 370.405652 297.453859 
L 370.799176 297.613474 
L 372.766796 297.481438 
L 373.16032 297.819535 
L 373.553844 297.51466 
L 373.947368 297.793225 
L 374.340892 297.629281 
L 375.127939 297.80852 
L 375.521463 297.690651 
L 375.914987 297.943243 
L 376.308511 297.506192 
L 376.702035 297.958552 
L 377.489083 297.765305 
L 377.882607 298.146343 
L 378.276131 297.703533 
L 378.669655 298.012013 
L 379.063179 298.147379 
L 379.456703 297.982 
L 379.850227 298.242285 
L 380.243751 298.073628 
L 380.637275 298.150313 
L 381.030799 298.061933 
L 381.424322 298.38176 
L 381.817846 298.245226 
L 382.998418 298.249516 
L 383.391942 298.490594 
L 384.17899 298.475437 
L 384.572514 298.398642 
L 384.966038 298.648102 
L 385.359562 298.670392 
L 385.753086 298.543122 
L 386.540134 298.846405 
L 386.933658 298.608696 
L 387.327181 298.881869 
L 387.720705 298.93385 
L 388.114229 298.753357 
L 388.507753 299.031412 
L 388.901277 298.905494 
L 389.688325 299.018292 
L 391.262421 299.01682 
L 391.655945 298.897638 
L 392.049469 298.615954 
L 392.836517 298.933609 
L 393.23004 299.104144 
L 393.623564 298.973503 
L 394.410612 298.975216 
L 396.771756 299.673245 
L 397.16528 299.887209 
L 398.345852 299.87589 
L 398.739376 300.123725 
L 400.706995 300.583979 
L 403.068139 300.957329 
L 403.855187 301.118217 
L 405.035759 301.356708 
L 406.21633 301.477602 
L 406.609854 301.63651 
L 407.790426 301.774273 
L 408.18395 301.920445 
L 408.577474 301.922144 
L 408.970998 302.062845 
L 409.364522 302.064241 
L 409.758046 302.20884 
L 410.15157 302.213244 
L 410.545094 302.350686 
L 410.938618 302.341136 
L 411.332141 302.501341 
L 411.725665 302.496934 
L 412.119189 302.619806 
L 412.512713 302.610659 
L 412.906237 302.778223 
L 413.299761 302.787843 
L 413.693285 302.922978 
L 414.086809 302.913809 
L 414.480333 303.08386 
L 414.873857 303.119874 
L 416.054429 303.548015 
L 417.235001 303.769646 
L 417.628524 303.948068 
L 418.022048 303.96639 
L 418.415572 304.122924 
L 418.809096 304.104826 
L 419.20262 304.299594 
L 419.596144 304.283174 
L 419.989668 304.467094 
L 420.383192 304.428435 
L 420.776716 304.670996 
L 421.17024 304.598267 
L 421.563764 304.857931 
L 421.957288 304.769576 
L 422.350812 305.080522 
L 422.744336 304.953127 
L 423.13786 305.26608 
L 423.531383 305.009324 
L 423.924907 305.509398 
L 424.318431 305.109918 
L 424.711955 305.680504 
L 425.105479 305.197467 
L 425.499003 305.88821 
L 425.892527 305.270661 
L 426.286051 306.048618 
L 426.679575 305.602893 
L 427.073099 306.194555 
L 427.466623 305.309567 
L 427.860147 306.433664 
L 428.253671 305.837603 
L 428.647195 306.556584 
L 429.040719 305.396341 
L 429.434242 306.571405 
L 429.827766 306.509193 
L 430.22129 306.282513 
L 430.614814 306.55398 
L 431.795386 306.810662 
L 432.18891 307.088819 
L 432.582434 306.558686 
L 432.975958 307.710666 
L 433.369482 305.777033 
L 433.763006 307.550061 
L 434.15653 307.966005 
L 434.550054 306.010431 
L 434.943578 308.141847 
L 435.337102 306.141138 
L 435.730625 307.828925 
L 436.124149 307.887885 
L 436.517673 308.100353 
L 436.911197 307.096895 
L 437.304721 308.451362 
L 437.698245 307.366415 
L 438.091769 308.648153 
L 438.485293 306.549295 
L 438.878817 308.660429 
L 439.272341 308.770666 
L 439.665865 308.510839 
L 440.059389 306.781161 
L 440.452913 309.128919 
L 440.846437 309.17529 
L 441.239961 308.919302 
L 441.633484 307.115386 
L 442.027008 309.325839 
L 442.420532 309.224789 
L 442.814056 309.512169 
L 443.20758 307.581712 
L 443.601104 309.630459 
L 444.388152 309.943926 
L 444.781676 306.962419 
L 445.1752 309.86166 
L 445.568724 310.638421 
L 445.962248 310.306403 
L 446.355772 306.919867 
L 446.749296 310.277382 
L 447.14282 310.544033 
L 447.536343 310.508528 
L 447.929867 307.637297 
L 448.323391 310.38377 
L 448.716915 310.208005 
L 449.110439 310.867681 
L 449.503963 309.771813 
L 449.897487 310.861312 
L 450.291011 310.345523 
L 450.684535 311.026313 
L 451.078059 309.711366 
L 451.471583 311.28496 
L 451.865107 310.862258 
L 452.258631 311.344511 
L 452.652155 309.932174 
L 453.045679 311.695962 
L 453.439203 311.412976 
L 453.832726 312.158303 
L 454.22625 308.89498 
L 454.619774 311.431915 
L 455.013298 313.097473 
L 455.406822 311.320243 
L 455.800346 312.383972 
L 456.19387 309.745829 
L 456.587394 311.473659 
L 456.980918 313.858739 
L 457.374442 311.324595 
L 457.767966 312.851451 
L 458.16149 309.909811 
L 458.555014 311.470068 
L 458.948538 314.484054 
L 459.342062 312.258044 
L 459.735585 312.662776 
L 460.129109 311.795486 
L 460.522633 312.599644 
L 460.916157 314.071172 
L 461.309681 311.881735 
L 461.703205 313.712044 
L 462.096729 311.975411 
L 462.490253 313.047298 
L 463.277301 313.71868 
L 463.670825 313.858853 
L 464.064349 312.807841 
L 464.457873 314.301005 
L 464.851397 313.425492 
L 465.244921 314.292534 
L 465.638444 313.800767 
L 466.031968 314.511859 
L 466.425492 313.865668 
L 466.819016 314.888858 
L 467.21254 313.446495 
L 467.999588 315.671068 
L 468.393112 313.601465 
L 468.786636 315.513378 
L 469.18016 313.970064 
L 469.967208 315.798207 
L 470.360732 315.020258 
L 470.754256 316.125086 
L 471.14778 313.728417 
L 471.934827 316.87622 
L 472.328351 315.01088 
L 472.721875 316.956852 
L 473.115399 313.789251 
L 473.508923 315.243356 
L 473.902447 317.766841 
L 474.295971 315.533653 
L 474.689495 316.489444 
L 475.083019 315.696335 
L 475.476543 316.2339 
L 475.870067 317.022555 
L 476.263591 316.538071 
L 476.657115 317.426305 
L 477.050639 315.563711 
L 477.837686 318.065655 
L 478.23121 316.63082 
L 478.624734 317.538212 
L 479.018258 316.029862 
L 479.805306 319.246243 
L 480.19883 317.410828 
L 480.592354 319.4658 
L 480.985878 316.326633 
L 481.379402 317.75456 
L 481.772926 320.864285 
L 482.16645 318.488196 
L 482.559974 319.467296 
L 482.953498 318.160687 
L 483.740545 320.014024 
L 484.134069 320.669708 
L 484.527593 318.730623 
L 484.921117 320.214481 
L 485.314641 320.301644 
L 485.708165 320.175345 
L 486.101689 318.968781 
L 486.495213 320.583357 
L 486.888737 320.822793 
L 487.282261 320.550254 
L 487.675785 319.024863 
L 488.069309 320.845416 
L 488.462833 321.333876 
L 488.856357 319.753361 
L 489.249881 321.684382 
L 489.643405 319.012979 
L 490.036928 320.24046 
L 490.430452 322.774484 
L 490.823976 319.55001 
L 491.2175 321.138801 
L 491.611024 320.048455 
L 492.004548 320.634727 
L 492.398072 323.580644 
L 492.791596 318.140742 
L 493.18512 319.783494 
L 493.578644 323.95144 
L 493.972168 320.825772 
L 494.365692 321.253504 
L 494.759216 321.049451 
L 495.15274 321.196602 
L 495.546264 322.656694 
L 495.939787 321.106147 
L 496.333311 322.49923 
L 496.726835 320.240494 
L 497.120359 321.495534 
L 497.513883 323.800202 
L 497.907407 320.475205 
L 498.300931 321.993271 
L 499.087979 321.861591 
L 499.481503 323.697448 
L 499.875027 320.357546 
L 500.662075 323.819155 
L 501.055599 322.147893 
L 501.449123 322.689615 
L 501.842646 320.992471 
L 502.23617 322.243681 
L 502.629694 324.292139 
L 503.023218 321.858265 
L 503.416742 323.512855 
L 503.810266 321.057459 
L 504.20379 322.227435 
L 504.597314 324.396276 
L 504.990838 321.828834 
L 505.384362 323.257173 
L 505.777886 323.022589 
L 506.17141 323.003756 
L 506.564934 324.303496 
L 506.958458 322.085339 
L 507.351982 323.684104 
L 507.745506 323.377446 
L 508.139029 323.956755 
L 508.532553 322.7231 
L 508.926077 323.934042 
L 509.319601 324.009885 
L 509.713125 323.239507 
L 510.106649 323.95966 
L 510.500173 323.391697 
L 510.893697 324.365858 
L 512.074269 323.652448 
L 512.467793 324.900357 
L 512.861317 323.823981 
L 513.254841 324.870374 
L 513.648365 323.578636 
L 514.041888 324.647485 
L 514.435412 325.133541 
L 514.828936 323.690923 
L 515.22246 325.546943 
L 515.615984 323.460629 
L 516.009508 324.607693 
L 516.403032 326.307856 
L 516.796556 323.183021 
L 517.19008 325.140267 
L 517.583604 325.482743 
L 517.977128 325.349806 
L 518.370652 323.902494 
L 518.764176 325.572734 
L 519.1577 325.694596 
L 519.551224 325.311535 
L 519.944747 324.117434 
L 520.338271 325.814444 
L 520.731795 326.36872 
L 521.125319 324.20056 
L 521.518843 326.417598 
L 521.912367 324.63321 
L 522.305891 325.615509 
L 522.699415 326.948714 
L 523.092939 324.305006 
L 523.486463 326.380303 
L 523.879987 325.10808 
L 524.273511 325.664638 
L 524.667035 326.45015 
L 525.060559 324.818467 
L 525.454083 326.683109 
L 525.847607 325.52051 
L 526.24113 326.242075 
L 526.634654 325.669158 
L 527.028178 326.411722 
L 527.421702 325.609053 
L 527.815226 326.696576 
L 528.20875 324.987225 
L 528.602274 326.370402 
L 528.995798 326.662739 
L 529.389322 325.513448 
L 529.782846 326.315077 
L 530.17637 324.577756 
L 530.963418 327.082988 
L 531.356942 324.245593 
L 531.750466 326.159366 
L 532.143989 325.113686 
L 532.537513 325.392493 
L 532.931037 326.661415 
L 533.324561 323.920792 
L 533.718085 325.757484 
L 534.111609 326.328713 
L 534.505133 325.536667 
L 534.898657 324.230634 
L 535.292181 326.160432 
L 535.685705 325.62717 
L 536.079229 325.979037 
L 536.472753 323.59411 
L 536.866277 325.790015 
L 537.259801 326.95557 
L 537.653325 324.317865 
L 538.046848 326.305748 
L 538.440372 324.503707 
L 538.833896 325.399983 
L 539.22742 327.043764 
L 539.620944 324.745657 
L 540.014468 326.638514 
L 540.407992 324.313265 
L 541.19504 327.335138 
L 541.588564 325.156835 
L 541.982088 326.479949 
L 542.375612 325.085345 
L 542.769136 326.247245 
L 543.16266 326.860155 
L 543.556184 325.937695 
L 543.949708 327.086256 
L 544.343231 324.594726 
L 544.736755 326.738643 
L 545.130279 327.829607 
L 545.523803 325.386892 
L 545.917327 327.309051 
L 546.310851 325.260399 
L 546.704375 326.351842 
L 547.097899 328.39339 
L 547.491423 325.242616 
L 547.884947 327.780238 
L 548.278471 324.72453 
L 549.065519 328.473224 
L 549.459043 326.27671 
L 549.852567 326.906307 
L 550.24609 326.26899 
L 551.033138 328.248694 
L 551.426662 325.672927 
L 551.820186 327.817681 
L 552.21371 327.530325 
L 552.607234 327.453672 
L 553.000758 326.721576 
L 553.394282 327.852551 
L 553.787806 327.617203 
L 554.18133 327.817725 
L 554.574854 326.261056 
L 554.968378 328.277086 
L 555.361902 328.457669 
L 555.755426 327.078375 
L 556.148949 327.990169 
L 556.542473 327.733141 
L 556.935997 328.412135 
L 557.329521 327.158428 
L 557.723045 328.657906 
L 558.116569 327.879671 
L 558.510093 328.455843 
L 558.903617 326.984918 
L 559.297141 328.768168 
L 559.690665 328.745188 
L 560.084189 327.180516 
L 560.477713 329.292858 
L 560.871237 327.239797 
L 561.264761 328.840082 
L 561.658285 329.193439 
L 562.051809 327.584145 
L 562.445332 329.253684 
L 562.838856 327.184855 
L 563.23238 329.265255 
L 563.625904 329.439214 
L 564.019428 328.277833 
L 564.412952 328.180859 
L 564.806476 329.541659 
L 565.2 328.92097 
L 565.2 328.92097 
" clip-path="url(#p06880e5136)" style="fill: none; stroke: #ff7f0e; stroke-width: 1.5; stroke-linecap: square"/>
   </g>
   <g id="patch_3">
    <path d="M 53.618885 385.9 
L 53.618885 10.8 
" style="fill: none; stroke: #000000; stroke-width: 0.8; stroke-linejoin: miter; stroke-linecap: square"/>
   </g>
   <g id="patch_4">
    <path d="M 565.2 385.9 
L 565.2 10.8 
" style="fill: none; stroke: #000000; stroke-width: 0.8; stroke-linejoin: miter; stroke-linecap: square"/>
   </g>
   <g id="patch_5">
    <path d="M 53.618885 385.9 
L 565.2 385.9 
" style="fill: none; stroke: #000000; stroke-width: 0.8; stroke-linejoin: miter; stroke-linecap: square"/>
   </g>
   <g id="patch_6">
    <path d="M 53.618885 10.8 
L 565.2 10.8 
" style="fill: none; stroke: #000000; stroke-width: 0.8; stroke-linejoin: miter; stroke-linecap: square"/>
   </g>
   <g id="legend_1">
    <g id="patch_7">
     <path d="M 476.81875 48.15625 
L 558.2 48.15625 
Q 560.2 48.15625 560.2 46.15625 
L 560.2 17.8 
Q 560.2 15.8 558.2 15.8 
L 476.81875 15.8 
Q 474.81875 15.8 474.81875 17.8 
L 474.81875 46.15625 
Q 474.81875 48.15625 476.81875 48.15625 
z
" style="fill: #ffffff; opacity: 0.8; stroke: #cccccc; stroke-linejoin: miter"/>
    </g>
    <g id="line2d_15">
     <path d="M 478.81875 23.898438 
L 488.81875 23.898438 
L 498.81875 23.898438 
" style="fill: none; stroke: #1f77b4; stroke-width: 1.5; stroke-linecap: square"/>
    </g>
    <g id="text_15">
     <!-- Training -->
     <g transform="translate(506.81875 27.398438) scale(0.1 -0.1)">
      <defs>
       <path id="DejaVuSans-54" d="M -19 4666 
L 3928 4666 
L 3928 4134 
L 2272 4134 
L 2272 0 
L 1638 0 
L 1638 4134 
L -19 4134 
L -19 4666 
z
" transform="scale(0.015625)"/>
       <path id="DejaVuSans-72" d="M 2631 2963 
Q 2534 3019 2420 3045 
Q 2306 3072 2169 3072 
Q 1681 3072 1420 2755 
Q 1159 2438 1159 1844 
L 1159 0 
L 581 0 
L 581 3500 
L 1159 3500 
L 1159 2956 
Q 1341 3275 1631 3429 
Q 1922 3584 2338 3584 
Q 2397 3584 2469 3576 
Q 2541 3569 2628 3553 
L 2631 2963 
z
" transform="scale(0.015625)"/>
       <path id="DejaVuSans-69" d="M 603 3500 
L 1178 3500 
L 1178 0 
L 603 0 
L 603 3500 
z
M 603 4863 
L 1178 4863 
L 1178 4134 
L 603 4134 
L 603 4863 
z
" transform="scale(0.015625)"/>
       <path id="DejaVuSans-6e" d="M 3513 2113 
L 3513 0 
L 2938 0 
L 2938 2094 
Q 2938 2591 2744 2837 
Q 2550 3084 2163 3084 
Q 1697 3084 1428 2787 
Q 1159 2491 1159 1978 
L 1159 0 
L 581 0 
L 581 3500 
L 1159 3500 
L 1159 2956 
Q 1366 3272 1645 3428 
Q 1925 3584 2291 3584 
Q 2894 3584 3203 3211 
Q 3513 2838 3513 2113 
z
" transform="scale(0.015625)"/>
       <path id="DejaVuSans-67" d="M 2906 1791 
Q 2906 2416 2648 2759 
Q 2391 3103 1925 3103 
Q 1463 3103 1205 2759 
Q 947 2416 947 1791 
Q 947 1169 1205 825 
Q 1463 481 1925 481 
Q 2391 481 2648 825 
Q 2906 1169 2906 1791 
z
M 3481 434 
Q 3481 -459 3084 -895 
Q 2688 -1331 1869 -1331 
Q 1566 -1331 1297 -1286 
Q 1028 -1241 775 -1147 
L 775 -588 
Q 1028 -725 1275 -790 
Q 1522 -856 1778 -856 
Q 2344 -856 2625 -561 
Q 2906 -266 2906 331 
L 2906 616 
Q 2728 306 2450 153 
Q 2172 0 1784 0 
Q 1141 0 747 490 
Q 353 981 353 1791 
Q 353 2603 747 3093 
Q 1141 3584 1784 3584 
Q 2172 3584 2450 3431 
Q 2728 3278 2906 2969 
L 2906 3500 
L 3481 3500 
L 3481 434 
z
" transform="scale(0.015625)"/>
      </defs>
      <use xlink:href="#DejaVuSans-54"/>
      <use xlink:href="#DejaVuSans-72" x="46.333984"/>
      <use xlink:href="#DejaVuSans-61" x="87.447266"/>
      <use xlink:href="#DejaVuSans-69" x="148.726562"/>
      <use xlink:href="#DejaVuSans-6e" x="176.509766"/>
      <use xlink:href="#DejaVuSans-69" x="239.888672"/>
      <use xlink:href="#DejaVuSans-6e" x="267.671875"/>
      <use xlink:href="#DejaVuSans-67" x="331.050781"/>
     </g>
    </g>
    <g id="line2d_16">
     <path d="M 478.81875 38.576563 
L 488.81875 38.576563 
L 498.81875 38.576563 
" style="fill: none; stroke: #ff7f0e; stroke-width: 1.5; stroke-linecap: square"/>
    </g>
    <g id="text_16">
     <!-- Validation -->
     <g transform="translate(506.81875 42.076563) scale(0.1 -0.1)">
      <defs>
       <path id="DejaVuSans-56" d="M 1831 0 
L 50 4666 
L 709 4666 
L 2188 738 
L 3669 4666 
L 4325 4666 
L 2547 0 
L 1831 0 
z
" transform="scale(0.015625)"/>
       <path id="DejaVuSans-6c" d="M 603 4863 
L 1178 4863 
L 1178 0 
L 603 0 
L 603 4863 
z
" transform="scale(0.015625)"/>
       <path id="DejaVuSans-64" d="M 2906 2969 
L 2906 4863 
L 3481 4863 
L 3481 0 
L 2906 0 
L 2906 525 
Q 2725 213 2448 61 
Q 2172 -91 1784 -91 
Q 1150 -91 751 415 
Q 353 922 353 1747 
Q 353 2572 751 3078 
Q 1150 3584 1784 3584 
Q 2172 3584 2448 3432 
Q 2725 3281 2906 2969 
z
M 947 1747 
Q 947 1113 1208 752 
Q 1469 391 1925 391 
Q 2381 391 2643 752 
Q 2906 1113 2906 1747 
Q 2906 2381 2643 2742 
Q 2381 3103 1925 3103 
Q 1469 3103 1208 2742 
Q 947 2381 947 1747 
z
" transform="scale(0.015625)"/>
      </defs>
      <use xlink:href="#DejaVuSans-56"/>
      <use xlink:href="#DejaVuSans-61" x="60.658203"/>
      <use xlink:href="#DejaVuSans-6c" x="121.9375"/>
      <use xlink:href="#DejaVuSans-69" x="149.720703"/>
      <use xlink:href="#DejaVuSans-64" x="177.503906"/>
      <use xlink:href="#DejaVuSans-61" x="240.980469"/>
      <use xlink:href="#DejaVuSans-74" x="302.259766"/>
      <use xlink:href="#DejaVuSans-69" x="341.46875"/>
      <use xlink:href="#DejaVuSans-6f" x="369.251953"/>
      <use xlink:href="#DejaVuSans-6e" x="430.433594"/>
     </g>
    </g>
   </g>
  </g>
 </g>
 <defs>
  <clipPath id="p06880e5136">
   <rect x="53.618885" y="10.8" width="511.581115" height="375.1"/>
  </clipPath>
 </defs>
</svg>
